<?xml version="1.0" encoding="UTF-8"?>
<svg id="Layer_1" data-name="Layer 1" xmlns="http://www.w3.org/2000/svg" viewBox="0 0 1920 1938.05">
  <defs>
    <style>
      .cls-1 {
        fill: #3b3839;
      }
    </style>
  </defs>
  <path class="cls-1" d="M1558.1,909c-22.34-19.51-49.75-35.56-82.21-48.13-31-12.01-65.37-19.62-103.03-22.92,21.84-30.86,38.25-61.99,49.14-93.41,11.4-32.89,16.88-64.17,16.45-93.83-.43-29.68-3.34-56.27-8.69-79.75-5.37-23.5-13.25-46.47-23.65-68.93-24.03-51.87-58.57-93.84-103.62-125.89-45.05-32.07-95.38-50.64-151-55.72-55.61-5.09-110.15,4.75-163.62,29.53-52.94,24.52-96.11,59.94-129.53,106.28-30.44,42.2-49.21,88.4-56.59,138.52-43-26.78-90.39-42.34-142.26-46.41-56.96-4.47-111.89,5.56-164.83,30.08-53.47,24.77-96.26,60.01-128.33,105.72-32.09,45.71-50.46,96.11-55.13,151.21-4.68,55.09,5,108.58,29.03,160.45,10.4,22.46,22.84,43.32,37.28,62.61,14.45,19.27,32.85,38.68,55.21,58.2,22.34,19.51,49.75,35.56,82.21,48.13,31.01,12.01,65.37,19.62,103.03,22.92-21.84,30.86-38.25,62-49.14,93.41-11.4,32.9-16.88,64.17-16.44,93.84.43,29.68,3.34,56.27,8.69,79.75,5.37,23.49,13.25,46.47,23.65,68.93,24.03,51.87,58.57,93.83,103.62,125.89,45.06,32.07,95.38,50.65,151,55.72,55.61,5.09,110.15-4.75,163.62-29.53,52.94-24.52,96.11-59.94,129.53-106.28,30.44-42.19,49.21-88.4,56.59-138.52,43,26.78,90.39,42.34,142.26,46.41,56.96,4.47,111.89-5.56,164.83-30.08,53.47-24.77,96.26-60.01,128.33-105.72,32.09-45.7,50.46-96.1,55.13-151.21,4.68-55.09-5-108.57-29.03-160.44-10.4-22.46-22.84-43.32-37.28-62.61-14.45-19.27-32.85-38.68-55.21-58.2ZM1505.29,1022.11c6.15,23.79,8.16,51.59,6.01,83.43-2.13,31.84-9.51,64.97-22.15,99.4-36.37,96.73-73.15,163.13-110.35,199.19-20.59,18.64-41.74,31.51-63.44,38.65-21.69,7.13-40.64,7.96-56.83,2.46-15.64-5.74-29.63-18.42-41.97-38.03-12.33-19.62-19.94-43.04-22.82-70.29-1.38-15.59-1.02-34.11,1.06-55.54,2.1-21.43,6.14-44.25,12.13-68.45,6-24.21,14.21-49.6,24.62-76.19,10.43-26.58,22.31-51.41,35.64-74.48-45.21,4.72-84.83,8.94-118.83,12.67-33.98,3.73-59.04,6.41-75.19,8.04-16.13,1.63-33.21,3.58-43.01,4.86-7.32,6.65-19.85,18.42-31.52,29.67-11.68,11.26-29.93,28.65-54.75,52.15-24.83,23.53-53.66,51.01-86.5,82.45,26.22,4.75,52.84,11.74,79.86,20.97,27.01,9.25,51.69,19.41,74.03,30.48,22.34,11.08,42.36,22.76,60.06,35.01,17.69,12.26,32.05,23.97,43.05,35.1,18.92,19.82,31.87,40.76,38.86,62.86,6.98,22.1,7.61,40.97,1.87,56.61-6.27,15.9-19.16,29.82-38.62,41.76-19.47,11.95-42.97,19.75-70.5,23.4-51.57,5.06-126-9.82-223.3-44.63-34.43-12.62-64.48-28.41-90.14-47.38-25.67-18.95-45.58-38.46-59.75-58.54-14.16-20.06-25.47-40.96-33.92-62.71-8.45-21.73-13.86-41.8-16.2-60.2-2.35-18.39-3.29-35.49-2.82-51.3.47-15.8,1.29-27.71,2.45-35.72,1.17-8,2.15-12.52,2.98-13.55h-.02s.01-.03.01-.03c-1.33-.04-5.41-2.21-12.26-6.5-6.86-4.29-16.47-11.37-28.83-21.23-12.36-9.86-24.8-21.63-37.31-35.32-12.52-13.68-24.34-30.78-35.45-51.28-11.13-20.51-19.76-42.65-25.9-66.43-6.15-23.79-8.16-51.59-6.01-83.43,2.13-31.84,9.51-64.97,22.15-99.4,36.37-96.73,73.15-163.13,110.35-199.19,20.59-18.64,41.74-31.51,63.44-38.65,21.69-7.13,40.64-7.96,56.83-2.46,15.64,5.74,29.63,18.42,41.97,38.04,12.33,19.62,19.94,43.03,22.82,70.29,1.38,15.59,1.02,34.11-1.07,55.53-2.1,21.43-6.14,44.25-12.13,68.45-6,24.22-14.21,49.6-24.62,76.19-10.43,26.58-22.31,51.4-35.64,74.47,45.22-4.71,84.83-8.94,118.83-12.66,33.98-3.73,59.04-6.41,75.18-8.04,16.13-1.62,29.09-3.09,38.89-4.38l4.12-.49c7.32-6.65,19.86-18.4,31.52-29.66,11.68-11.25,29.93-28.64,54.75-52.15,24.83-23.53,53.66-51.01,86.5-82.45-26.22-4.75-52.84-11.73-79.85-20.97-27.01-9.25-51.69-19.41-74.04-30.49-22.34-11.08-42.36-22.76-60.06-35.01-17.69-12.26-32.05-23.97-43.05-35.1-18.92-19.82-31.87-40.77-38.86-62.86-6.98-22.1-7.61-40.97-1.87-56.61,6.27-15.9,19.16-29.82,38.62-41.76,19.48-11.94,42.97-19.75,70.5-23.4,51.57-5.06,126,9.82,223.3,44.63,34.43,12.62,64.48,28.42,90.14,47.38,25.67,18.94,45.58,38.46,59.75,58.53,14.16,20.06,25.47,40.96,33.92,62.71,8.45,21.73,13.86,41.8,16.2,60.2,2.36,18.39,3.29,35.5,2.82,51.3-.47,15.81-1.29,27.71-2.45,35.72-1.16,8-2.15,12.52-2.97,13.56h.02s-.01.03-.01.03c1.33.04,5.41,2.21,12.26,6.49,6.86,4.3,16.47,11.37,28.83,21.23,12.36,9.86,24.8,21.64,37.31,35.32,12.52,13.69,24.34,30.79,35.45,51.29,11.13,20.51,19.76,42.65,25.9,66.42Z"/>
  <g>
    <path class="cls-1" d="M15.03,877.75c-.75,1.22-1.9,1.65-3.41,1.3-1.53-.35-2.44-1.23-2.74-2.65l-1.11-9.29c-.81-6.83-2.81-17.69-6.03-32.54l-1.66-6.94c-.26-1.12.08-2.13.99-3.01.93-.88,1.96-1.22,3.09-1.02l158.44,27.45c9.93,1.71,17.86-.22,23.82-5.79,1.15-1.06,2.46-1.21,3.84-.42,1.41.79,1.98,1.97,1.7,3.55l-1.59,7.47c-2.56,11.77-4.64,23.76-6.22,35.98l-.99,7.29c-.28,1.66-1.21,2.67-2.81,2.96-1.59.32-2.77-.23-3.53-1.63-3.86-7.45-10.66-12.03-20.41-13.72l-116.92-20.26c-3.86-.66-7.14-.94-9.83-.82-2.68.13-4.86.67-6.46,1.66-1.63.99-2.79,1.89-3.53,2.72-.73.81-1.57,2.14-2.52,3.97-.95,1.82-1.66,3.06-2.14,3.71Z"/>
    <path class="cls-1" d="M110.6,766.88c-18.43-6.46-33.85-14.91-46.24-25.36-12.39-10.43-20.71-21.9-25.01-34.34-4.26-12.45-4.1-24.85.55-37.2,4.34-12.55,12.17-22.26,23.45-29.1,11.28-6.82,24.99-10.32,41.11-10.46,16.13-.16,33.42,3.15,51.83,9.89,18.49,6.58,33.91,15.07,46.26,25.5,12.35,10.43,20.67,21.89,25.01,34.35,4.3,12.46,4.12,24.9-.55,37.35-4.3,12.47-12.11,22.12-23.39,28.96-11.28,6.83-25.03,10.31-41.24,10.43-16.19.13-33.46-3.21-51.77-10.01ZM54.03,680.9c-2.02,5.05-.36,10.6,5.01,16.67,5.33,6.05,13.7,11.97,25.03,17.7,11.34,5.77,24.56,10.84,39.64,15.24,15.1,4.42,29.13,7.23,42.12,8.44,12.96,1.23,23.61.77,31.91-1.35,8.3-2.12,13.36-5.79,15.14-11.02,2.04-5.15.38-10.78-5.01-16.89-5.37-6.11-13.73-12.03-25.09-17.74-11.34-5.71-24.58-10.72-39.72-15.04-14.98-4.45-28.94-7.29-41.94-8.52-12.96-1.23-23.59-.75-31.87,1.45-8.26,2.18-13.36,5.87-15.22,11.06Z"/>
    <path class="cls-1" d="M175.63,599.56c-16.83-9.9-30.32-21.18-40.45-33.82-10.15-12.65-16.11-25.49-17.9-38.52-1.8-13.04.79-25.17,7.75-36.4,6.68-11.48,16.21-19.47,28.6-24,12.41-4.52,26.5-5.29,42.35-2.33,15.86,2.97,32.17,9.54,48.95,19.72,16.85,10.03,30.32,21.35,40.43,33.97s16.07,25.47,17.9,38.53c1.84,13.06-.75,25.25-7.75,36.55-6.64,11.4-16.15,19.36-28.54,23.88-12.41,4.52-26.56,5.27-42.49,2.26-15.92-3.01-32.21-9.63-48.86-19.84ZM136.74,504.27c-2.95,4.58-2.4,10.35,1.7,17.32,4.08,6.98,11.12,14.39,21.13,22.22,10.03,7.83,22,15.38,35.97,22.62,13.95,7.24,27.17,12.7,39.68,16.42,12.49,3.71,22.99,5.31,31.55,4.85,8.56-.48,14.23-3.11,17.01-7.9,2.99-4.66,2.46-10.48-1.65-17.52s-11.16-14.47-21.21-22.26c-10.01-7.8-22.06-15.28-36.05-22.44-13.83-7.28-26.99-12.77-39.5-16.47-12.49-3.73-23.01-5.3-31.55-4.76-8.54.54-14.23,3.17-17.08,7.91Z"/>
    <path class="cls-1" d="M236,410.9c-11.04-10.64-16.89-22.45-17.5-35.42-.61-12.94,4.06-24.41,14.03-34.37,9.83-10.09,21.21-14.88,34.13-14.4,12.94.49,24.81,6.17,35.6,17.07,11.16,10.78,17.06,22.63,17.72,35.55.65,12.93-4.08,24.31-14.17,34.14-9.69,10.21-21.07,15.08-34.03,14.61-13-.5-24.93-6.22-35.77-17.18ZM239.5,353.46c-4.2,4.12-4.82,9.75-1.82,16.89,2.97,7.14,8.76,14.22,17.4,21.23,8.54,6.94,16.95,11.36,25.17,13.22,8.24,1.88,14.43.71,18.57-3.47,4.14-4.06,4.72-9.69,1.74-16.91-2.97-7.19-8.78-14.29-17.4-21.31-8.56-6.94-16.95-11.34-25.15-13.17-8.21-1.85-14.37-.66-18.51,3.52ZM370.83,479c-.95.95-2.02,1.24-3.29.86-1.27-.37-2.1-1.18-2.5-2.45l-57.28-203.56c-.46-2.21.04-4.03,1.47-5.5l6.98-7.04c.93-.95,2.02-1.25,3.29-.87s2.1,1.19,2.48,2.45l57.38,203.66c.46,2.06-.06,3.87-1.57,5.39l-6.96,7.06ZM454.7,399.2c-9.85,10.1-21.25,14.9-34.21,14.46-12.96-.46-24.83-6.14-35.64-17.04-11.1-10.7-16.97-22.56-17.6-35.54-.67-12.98,4.04-24.4,14.15-34.25,9.69-10.21,21.01-15.06,33.95-14.59,12.92.5,24.85,6.24,35.75,17.27,11.04,10.65,16.91,22.43,17.54,35.37.65,12.91-4,24.35-13.95,34.32ZM388.19,338.99c-4.12,4.06-4.7,9.71-1.68,16.93,3.01,7.24,8.82,14.37,17.44,21.37,8.62,7.02,17.02,11.43,25.19,13.24,8.19,1.8,14.31.57,18.39-3.67,4.18-4.13,4.82-9.75,1.86-16.85-2.93-7.12-8.72-14.17-17.34-21.19-8.62-7.01-17.06-11.44-25.29-13.3-8.24-1.88-14.43-.72-18.57,3.47Z"/>
    <path class="cls-1" d="M512.4,126.9c-1.35-.58-2.02-1.62-2.04-3.13-.04-1.5.63-2.55,2.04-3.17l7.55-3.04c7.93-3.23,15.78-6.72,23.49-10.43l7.47-3.61c1.39-.61,2.6-.41,3.65.65,1.05,1.03,1.35,2.25.87,3.63-.83,2.71-1.03,5.29-.59,7.73.44,2.44,1.45,5.39,3.01,8.9l32.76,73.85c2.44-5.27,5.71-9.78,9.79-13.56l22.95-22.48c4.68-4.62,7.67-10.16,8.94-16.63,1.27-6.46.61-12.63-1.98-18.49l-12.92-29.11c-2.85-6.43-6.56-10.69-11.08-12.78-1.35-.57-2.02-1.62-2.04-3.11-.04-1.51.63-2.56,2.02-3.17l7.57-3.06c8.11-3.31,15.92-6.77,23.47-10.42l7.49-3.63c1.39-.59,2.58-.38,3.65.65,1.03,1.05,1.35,2.26.87,3.65-.83,2.72-1.03,5.28-.59,7.72.44,2.45,1.45,5.4,3.01,8.91l60.43,136.21c1.55,3.5,3.07,6.23,4.6,8.2,1.49,1.98,3.55,3.55,6.12,4.75,1.33.58,2.04,1.62,2.1,3.1.08,1.48-.59,2.52-1.98,3.15l-7.69,3.1c-7.77,3.15-15.58,6.62-23.47,10.42l-7.35,3.56c-1.39.6-2.62.41-3.71-.62-1.09-1.02-1.41-2.22-.95-3.61,1.51-4.76.81-10.36-2.04-16.8l-32.76-73.84c-2.81,5.53-6.08,10.11-9.85,13.73l-23.21,22.57c-4.56,4.48-7.43,9.94-8.66,16.43-1.21,6.49-.52,12.66,2.08,18.54l12.86,28.99c1.55,3.51,3.07,6.22,4.6,8.2,1.51,1.97,3.55,3.55,6.12,4.75,1.33.57,2.04,1.61,2.1,3.09.08,1.47-.59,2.53-1.98,3.14l-7.67,3.12c-7.95,3.23-15.76,6.7-23.49,10.41l-7.33,3.57c-1.41.61-2.62.4-3.73-.63-1.09-1.03-1.41-2.22-.95-3.6,1.51-4.77.83-10.37-2.02-16.82l-60.45-136.19c-2.85-6.43-6.54-10.7-11.08-12.78Z"/>
    <path class="cls-1" d="M716.56,43.61c-1.27-.83-1.78-1.97-1.49-3.46.28-1.47,1.15-2.35,2.64-2.67l8.17-1.46c8.26-1.49,16.65-3.25,25.13-5.33l8.05-1.98c1.49-.32,2.64.14,3.45,1.39.81,1.25.83,2.5.1,3.74-2.44,4.35-2.93,9.98-1.49,16.87l18.87,88.97c.16.7.5,2.37,1.07,4.98.54,2.61.93,4.44,1.15,5.49.22,1.05.63,2.75,1.23,5.14s1.13,4.27,1.63,5.68c.48,1.4,1.09,3.07,1.86,4.99s1.61,3.7,2.5,5.29c.87,1.59,1.88,3.08,2.99,4.48,4.72,6.29,10.62,10.84,17.72,13.62,7.12,2.77,14.53,3.35,22.18,1.72,7.15-1.53,13.32-4.67,18.51-9.46,5.17-4.8,8.86-10.64,11.04-17.59,1.39-4.58,1.94-9.43,1.63-14.56-.3-5.12-1.17-11.43-2.56-18.88l-17.9-84.39c-2.91-13.7-6.84-22.66-11.85-26.88-1.11-.96-1.51-2.16-1.17-3.59.34-1.45,1.15-2.3,2.46-2.58l4.64-.71c4.86-.76,9.65-1.76,14.39-3.05l4.52-1.23c1.33-.28,2.42.18,3.33,1.35.87,1.18.99,2.44.36,3.75-2.93,5.92-2.7,16.99.75,33.2l18.55,88.79c3.81,18.88.79,35.85-9.1,50.94-9.89,15.08-24.26,24.58-43.11,28.49-18.75,4.05-35.75,1.2-51-8.61-15.24-9.8-24.95-24.06-29.1-42.77l-22.22-104.83c-1.47-6.89-4.1-11.83-7.93-14.85Z"/>
    <path class="cls-1" d="M905.82,191.2c-1.7-.04-2.79-.85-3.29-2.43-.5-1.58-.1-2.88,1.17-3.91,6.3-5.37,10.9-12.66,13.81-21.86l35.6-119.1c4.3-14.53,3.21-27.44-3.27-38.77-.69-1.08-.67-2.22,0-3.39.71-1.2,1.74-1.77,3.07-1.74l33.42.87c1.07.02,2.08.43,3.05,1.21.95.79,1.57,1.72,1.8,2.79l26.7,121.51,35.75-119.9c.3-1.08.93-1.96,1.94-2.7.99-.73,2.04-1.08,3.11-1.05l29.81.76c1.51.04,2.58.72,3.15,2.02.59,1.31.38,2.49-.61,3.53-2.58,2.78-4.32,6.5-5.23,11.1-.93,4.63-.61,11.05.95,19.3l31.47,128.73c2.34,9.87,6.42,17.38,12.27,22.53,1.31,1.09,1.68,2.42,1.17,3.96-.54,1.57-1.61,2.31-3.21,2.26l-8.82-.49c-9.08-.51-18.27-.74-27.55-.72h-10.43c-1.53-.02-2.62-.71-3.31-2.02-.67-1.31-.63-2.58.12-3.81,2.79-5.01,3.65-9.81,2.5-14.39l-27.21-111.49-37.8,126.4c-.77,2.04-2.18,3.02-4.24,2.97l-11.22-.29c-1.96-.05-3.27-1.11-3.92-3.18l-31.22-128.19-33.08,109.94c-1.27,4.42-.63,9.26,1.9,14.5.67,1.26.63,2.55-.1,3.82-.75,1.27-1.88,1.88-3.39,1.85l-5.75-.42c-4.64-.4-9.35-.51-14.17-.38l-4.95.15Z"/>
    <path class="cls-1" d="M1144.84,203.71c-.85-.26-1.49-.81-1.96-1.68-.44-.85-.54-1.76-.26-2.71.22-.86.91-1.6,2-2.22,6.98-3.68,13.44-9.63,19.38-17.85l74.22-105.35c4.02-6,6.68-11.31,7.99-15.94,1.01-3.53,1.31-8.02.93-13.51l-.44-8.31c.24-.77.77-1.41,1.59-1.92.85-.5,1.68-.63,2.56-.4l26.5,7.53c2.4.67,3.73,2.39,3.96,5.15l10.48,168.98c.63,9.53,3.01,18,7.14,25.37.59,1.09.79,2.08.55,2.93-.28.95-.87,1.66-1.8,2.14s-1.8.6-2.68.36l-45.03-12.76c-1.03-.3-1.78-.95-2.3-1.98-.5-1.01-.59-2.04-.3-3.07.18-.68,1.19-1.86,3.01-3.53,1.8-1.65,2.99-3.44,3.53-5.33.57-2.05.77-6.52.59-13.38-.18-6.87-.54-14.41-1.03-22.61-.5-8.21-.79-13.14-.85-14.84-4.36,3.59-9.89,6.22-16.57,7.89-6.68,1.67-13.2,2.66-19.54,2.95-6.32.28-12.55.72-18.65,1.31-6.08.58-11.34,2.09-15.74,4.51-4.38,2.43-7.33,6.09-8.82,11.05-.55,1.96-.54,4.2.1,6.71.63,2.49.89,3.99.73,4.51-.28,1.04-.91,1.84-1.86,2.46-.97.61-1.96.77-2.99.48l-24.46-6.92ZM1194.92,164.36l32.82-2.93c5.41-.5,10.17-2.39,14.25-5.69,4.1-3.29,6.86-7.51,8.32-12.66.61-2.13.89-4.93.85-8.36l-1.82-47.51-54.42,77.16Z"/>
    <path class="cls-1" d="M1395.97,86.93c-.54-1.49-.24-2.75.93-3.81,1.17-1.06,2.42-1.23,3.75-.52l33.51,17.6c1.74.91,2.72,2.4,2.97,4.43l16.31,150.33,41.96-79.79c3.83-7.26,6.6-13.41,8.32-18.44,1.74-5.03,2.26-9.45,1.53-13.26-.24-1.43.2-2.61,1.33-3.53,1.13-.91,2.32-1.05,3.49-.44l4,2.42c4.22,2.52,8.58,4.8,13.04,6.85l4.26,1.94c1.19.62,1.74,1.66,1.66,3.14-.06,1.48-.75,2.52-2.08,3.13-3.55,1.57-6.9,4.48-10.07,8.78-3.15,4.28-6.64,10.05-10.44,17.3l-69.84,132.85c-.5.94-1.29,1.57-2.34,1.86-1.07.3-2.02.22-2.89-.25l-8.52-4.47c-1.74-.91-2.72-2.33-2.91-4.26l-20.55-169.32-48.8,92.82c-3.83,7.26-6.6,13.41-8.32,18.44-1.74,5.02-2.26,9.45-1.53,13.26.24,1.43-.22,2.6-1.39,3.49s-2.36,1.03-3.55.42l-4.02-2.42c-4.22-2.52-8.54-4.81-13.02-6.86l-4.02-1.81c-1.35-.7-2-1.8-1.96-3.3.02-1.5.73-2.52,2.14-3.09,6.03-2.68,12.92-11.34,20.65-26.02l54.01-102.76c5.65-11.14,6.46-22.72,2.4-34.72Z"/>
  </g>
  <g>
    <path class="cls-1" d="M103.19,1104.93c-.52-5.15.2-9.88,2.14-14.17,1.94-4.28,4.84-7.82,8.7-10.63,3.86-2.8,8.4-4.47,13.66-4.98,4.88-.49,9.39.25,13.56,2.2,4.14,1.95,7.59,4.83,10.35,8.65,2.75,3.83,4.4,8.36,4.92,13.61.5,4.96-.24,9.49-2.18,13.61-1.98,4.1-4.82,7.51-8.54,10.21-3.75,2.7-7.99,4.33-12.76,4.91-5.25.53-10.05-.17-14.37-2.05-4.32-1.89-7.87-4.68-10.6-8.36-2.74-3.68-4.36-8.01-4.86-12.97Z"/>
    <path class="cls-1" d="M135.15,1350.24c-2.72-6.99-4.02-13.98-3.86-21,.14-7,1.59-13.64,4.32-19.86,2.72-6.23,6.62-11.79,11.65-16.69,5.03-4.9,11.14-8.75,18.31-11.55,7.14-2.78,14.23-4.1,21.25-3.96,7,.15,13.64,1.61,19.88,4.39,6.24,2.77,11.77,6.67,16.57,11.7,4.8,5.03,8.58,11.08,11.32,18.15,2.77,7.07,4.06,14.09,3.9,21.06s-1.57,13.59-4.26,19.85c-2.66,6.25-6.54,11.81-11.59,16.66-5.05,4.87-11.16,8.69-18.31,11.48-7.15,2.79-14.25,4.09-21.27,3.91-7.04-.2-13.66-1.66-19.9-4.38-6.22-2.74-11.77-6.64-16.63-11.69-4.86-5.06-8.64-11.08-11.38-18.07ZM134.46,1378.23l37.89-51.02,6.38,16.29-37.82,51.27-6.46-16.55ZM149.13,1344.78c1.94,5,4.64,9.24,8.09,12.71,3.43,3.47,7.39,6.12,11.83,7.97,4.44,1.84,9.18,2.75,14.17,2.74,5.01-.02,10.07-1.02,15.14-3,4.99-1.94,9.35-4.62,13.06-8,3.69-3.37,6.58-7.25,8.64-11.64s3.17-9.01,3.29-13.88c.14-4.86-.77-9.81-2.72-14.81-1.96-4.99-4.64-9.24-8.03-12.73-3.41-3.5-7.35-6.15-11.83-7.98-4.48-1.82-9.24-2.74-14.23-2.71-5.03,0-10.03,1-15.02,2.94-5.09,1.99-9.47,4.68-13.18,8.05-3.69,3.39-6.56,7.26-8.58,11.63-2.02,4.36-3.11,9-3.27,13.93s.73,9.87,2.64,14.78Z"/>
    <path class="cls-1" d="M213.5,1506.25c-4.06-6.51-6.32-13.17-6.76-19.99-.46-6.83.83-13.14,3.84-18.96,3.01-5.83,7.59-10.65,13.72-14.48l57.3-35.85,8.68,13.89-56.7,35.5c-3.84,2.4-6.74,5.37-8.66,8.92-1.92,3.55-2.77,7.31-2.6,11.29.2,3.97,1.49,7.9,3.9,11.74,2.46,3.9,5.41,6.8,8.88,8.68,3.45,1.86,7.19,2.72,11.24,2.54,4.04-.18,7.99-1.47,11.83-3.86l56.72-35.5,8.68,13.88-57.32,35.85c-6.1,3.84-12.45,5.84-18.99,6-6.58.18-12.8-1.41-18.71-4.75-5.91-3.34-10.94-8.31-15.06-14.9Z"/>
    <path class="cls-1" d="M278.89,1597.04l101.26-42.02,13.56,15.09-52.68,96.13-11.77-13.12,12.05-21.27-28.08-31.3-22.63,9.49-11.69-13.02ZM327.2,1594.32l21.6,24.08,28.04-49.81,3.07,3.42-52.72,22.31Z"/>
    <path class="cls-1" d="M396.55,1716.66l64.85-80.58,12.76,10.29-55.73,69.21,34.84,28.02-9.14,11.36-47.59-38.3Z"/>
    <path class="cls-1" d="M505.94,1796.5l54.13-88.13,13.95,8.57-54.13,88.13-13.95-8.57Z"/>
    <path class="cls-1" d="M608.05,1851.85l36.67-80.93-24.91-11.28,6.01-13.28,64.49,29.21-6.01,13.28-24.66-11.18-36.69,80.92-14.9-6.75Z"/>
    <path class="cls-1" d="M743.28,1902.18l12.39-44.82-18.83-64.24,17.82,4.92,15.04,51.83-6.28-1.74,39.26-36.8,17.94,4.94-49.11,45.35-12.43,44.95-15.8-4.36Z"/>
    <path class="cls-1" d="M949.82,1937.44l.79-103.42,16.39.13-.36,45.53,47.75.37.36-45.53,16.37.11-.77,103.43-16.39-.12.34-43.18-47.77-.37-.32,43.18-16.39-.13Z"/>
    <path class="cls-1" d="M1105.74,1932.47l18.39-108.07,19.98-3.43,53.29,95.81-17.38,2.97-11.57-21.52-41.46,7.08-4,24.22-17.24,2.94ZM1129.18,1890.16l31.89-5.45-27.19-50.28,4.52-.76-9.22,56.5Z"/>
    <path class="cls-1" d="M1268.41,1896.7l-31.47-98.52,15.6-4.98,31.49,98.52-15.62,4.98Z"/>
    <path class="cls-1" d="M1361.74,1863.07l-44.99-93.12,33.87-16.36c6.24-3.01,12.29-4.54,18.15-4.54s11.18,1.53,16.01,4.59c4.84,3.08,8.72,7.64,11.65,13.73,3.13,6.5,4.2,12.8,3.17,18.89-1.01,6.08-3.73,11.49-8.13,16.19l39.6,27.11-16.73,8.09-42.51-29.57,12.35.97-24.62,11.9,16.89,35.01-14.73,7.12ZM1353.24,1807.82l19.36-9.35c3.33-1.61,5.93-3.69,7.79-6.22,1.86-2.55,2.91-5.33,3.17-8.4.28-3.07-.34-6.17-1.86-9.33-1.59-3.26-3.65-5.72-6.22-7.41-2.56-1.68-5.41-2.6-8.56-2.74-3.13-.12-6.38.62-9.71,2.22l-19.36,9.37,15.4,31.87Z"/>
    <path class="cls-1" d="M1557.76,1748.85l-39.1-102.42,15.46-13.1,94.62,55.41-13.46,11.39-20.91-12.65-32.11,27.18,8.84,22.89-13.34,11.31ZM1556.43,1700.48l24.7-20.91-48.99-29.47,3.51-2.95,20.79,53.33Z"/>
    <path class="cls-1" d="M1704.94,1608.75c-4.22,5.03-9.04,8.88-14.41,11.55-5.39,2.66-11,4.12-16.83,4.36-5.81.24-11.44-.75-16.81-2.98l4.48-14.38c6.48,2.2,12.59,2.56,18.33,1.07,5.71-1.47,10.58-4.63,14.63-9.43,2.38-2.83,4-5.68,4.88-8.5.87-2.84.99-5.52.36-8.07-.67-2.54-2.04-4.7-4.16-6.48-2.85-2.4-5.81-3.5-8.92-3.33-3.09.18-6.42,1.43-9.95,3.77l-17.28,11.08c-6.86,4.39-13.48,6.52-19.9,6.38-6.42-.12-12.17-2.34-17.28-6.62-4.38-3.71-7.37-8.06-8.94-13.06-1.61-5.03-1.72-10.29-.4-15.76,1.33-5.45,4.1-10.7,8.34-15.74,4-4.74,8.46-8.36,13.4-10.86,4.94-2.5,10.05-3.91,15.34-4.24,5.31-.34,10.39.49,15.28,2.42l-4.28,14.17c-5.55-1.88-10.82-2.13-15.78-.75-4.97,1.39-9.28,4.23-12.9,8.55-2.22,2.63-3.71,5.3-4.48,8.04-.79,2.72-.83,5.32-.12,7.79.71,2.46,2.16,4.62,4.36,6.46,2.54,2.16,5.49,3.25,8.84,3.27,3.37.05,6.9-1.15,10.64-3.58l16.05-10.26c7.21-4.7,13.93-7.14,20.22-7.31,6.24-.18,12.03,1.97,17.34,6.43,4.4,3.68,7.31,8.12,8.78,13.29,1.47,5.15,1.49,10.56.02,16.25-1.43,5.66-4.38,11.16-8.86,16.47Z"/>
    <path class="cls-1" d="M1793.08,1483.69c-3.35,5.65-7.45,10.25-12.33,13.77-4.86,3.51-10.15,5.87-15.86,7.08-5.71,1.19-11.42,1.15-17.08-.16l2.04-14.92c6.78,1.09,12.84.44,18.25-1.96,5.39-2.42,9.67-6.32,12.88-11.73,1.88-3.19,3.01-6.26,3.41-9.2.4-2.94.06-5.61-1.01-8.01-1.05-2.4-2.77-4.3-5.15-5.71-3.19-1.88-6.3-2.48-9.35-1.8-3.03.67-6.08,2.48-9.2,5.37l-15.2,13.74c-6.03,5.48-12.21,8.67-18.57,9.6-6.34.93-12.39-.3-18.13-3.69-4.94-2.91-8.6-6.72-11-11.41-2.38-4.69-3.37-9.84-2.95-15.45.4-5.61,2.28-11.26,5.61-16.93,3.15-5.33,6.96-9.64,11.44-12.92,4.44-3.27,9.24-5.51,14.43-6.7,5.15-1.21,10.33-1.25,15.46-.14l-1.88,14.67c-5.79-.93-11.02-.32-15.68,1.87-4.68,2.19-8.46,5.71-11.32,10.57-1.74,2.95-2.77,5.83-3.09,8.65s.06,5.38,1.17,7.7c1.11,2.32,2.89,4.21,5.37,5.67,2.85,1.68,5.95,2.28,9.26,1.76,3.33-.52,6.62-2.28,9.91-5.29l14.13-12.76c6.34-5.83,12.59-9.33,18.73-10.55,6.14-1.21,12.19-.05,18.17,3.48,4.94,2.91,8.56,6.8,10.86,11.63,2.28,4.85,3.19,10.21,2.72,16.03-.5,5.83-2.5,11.74-6.03,17.72Z"/>
    <path class="cls-1" d="M1860.2,1343.69c-2.74,7.18-6.68,13.01-11.85,17.48-5.17,4.47-10.98,7.26-17.44,8.37-6.46,1.11-13.06.36-19.8-2.2l-63.2-24.04,5.83-15.31,62.53,23.79c4.24,1.62,8.36,2.12,12.37,1.51,4-.6,7.51-2.19,10.56-4.74,3.05-2.56,5.37-5.95,7-10.19,1.65-4.33,2.16-8.43,1.57-12.33-.59-3.88-2.2-7.39-4.78-10.5s-5.99-5.47-10.23-7.08l-62.53-23.79,5.83-15.31,63.18,24.04c6.76,2.56,12.17,6.4,16.25,11.52,4.1,5.13,6.6,11.06,7.51,17.79.89,6.73-.04,13.73-2.79,20.99Z"/>
    <path class="cls-1" d="M1895.38,1225.26l-101.5-19.84,7.21-36.92c1.33-6.8,3.75-12.55,7.25-17.23,3.51-4.7,7.93-8.05,13.28-10.07,5.35-2.01,11.34-2.39,17.96-1.08,7.1,1.37,12.78,4.3,17.04,8.76,4.26,4.46,6.96,9.87,8.07,16.21l45.47-15.44-3.59,18.25-49.13,16.29,8.17-9.31-5.25,26.85,38.15,7.45-3.13,16.07ZM1846.07,1198.94l4.12-21.12c.71-3.64.59-6.95-.32-9.96s-2.52-5.54-4.8-7.6c-2.3-2.05-5.17-3.41-8.62-4.07-3.55-.71-6.76-.54-9.65.52-2.87,1.04-5.31,2.77-7.31,5.22-1.98,2.44-3.33,5.47-4.02,9.1l-4.14,21.12,34.74,6.8Z"/>
    <path class="cls-1" d="M1917.88,1081.89l-102.57-38.73.46-20.28,104.23-33.99-.4,17.63-23.37,7.24-.95,42.06,22.99,8.56-.4,17.5ZM1880.84,1050.76l.71-32.34-54.54,17.08.12-4.58,53.71,19.83Z"/>
    <path class="cls-1" d="M1914.45,913.02l-102.19,15.98-2.02-13.04,70.16-69.7,1.94,6.15-80.11,12.53-2.52-16.18,102.19-15.98,2.02,13.03-70.78,69.38-1.88-5.75,80.65-12.61,2.54,16.18Z"/>
    <path class="cls-1" d="M1866.69,703.71c2.46,7,3.47,13.84,2.99,20.59-.48,6.74-2.18,13.08-5.13,19.04-2.95,5.95-7.06,11.21-12.33,15.77-5.25,4.55-11.55,8.12-18.87,10.7-7.25,2.57-14.39,3.73-21.37,3.5-7.02-.23-13.52-1.71-19.54-4.45-6.03-2.74-11.32-6.6-15.88-11.61-4.58-5.01-8.09-11.01-10.54-18-2.4-6.8-3.39-13.38-2.99-19.7.44-6.33,1.9-12.05,4.4-17.16,2.52-5.11,5.71-9.28,9.57-12.51l11.36,11.75c-4.44,3.83-7.47,8.59-9.14,14.34-1.65,5.74-1.35,11.83.93,18.28,2.28,6.47,5.83,11.64,10.64,15.54,4.8,3.89,10.41,6.26,16.79,7.12,6.38.82,13.16-.02,20.3-2.55,7.25-2.55,13.12-6.17,17.6-10.85,4.48-4.66,7.35-10.02,8.6-16.05,1.27-6.04.75-12.29-1.53-18.75-2.28-6.46-5.85-11.41-10.68-14.84-4.86-3.45-10.27-5.24-16.19-5.4l1.61-16.32c4.95.13,9.99,1.38,15.16,3.77,5.17,2.41,9.89,5.94,14.19,10.6,4.3,4.66,7.65,10.41,10.05,17.2Z"/>
    <path class="cls-1" d="M1816.66,591.66l-90.3,50.41-33.14-59.42,12.72-7.1,25.15,45.1,25.94-14.48-23.8-42.67,12.72-7.1,23.8,42.67,26.2-14.63-25.17-45.09,12.72-7.1,33.14,59.39Z"/>
    <path class="cls-1" d="M1647.4,396.79c3.57,3.76,5.91,7.93,6.98,12.51,1.11,4.58.99,9.16-.36,13.74-1.33,4.57-3.9,8.67-7.73,12.32-3.57,3.36-7.57,5.55-12.05,6.54-4.48.99-8.98.83-13.5-.5-4.52-1.33-8.58-3.92-12.21-7.75-3.45-3.62-5.65-7.65-6.6-12.09-.97-4.46-.79-8.89.5-13.3,1.29-4.42,3.67-8.31,7.1-11.69,3.83-3.63,8.03-6.03,12.59-7.18,4.6-1.15,9.1-1.12,13.52.11,4.42,1.24,8.34,3.67,11.77,7.29Z"/>
  </g>
</svg>