<?xml version="1.0" encoding="UTF-8"?>
<svg id="Layer_1" data-name="Layer 1" xmlns="http://www.w3.org/2000/svg" viewBox="0 0 4542.6 4542.6">
  <defs>
    <style>
      .cls-1 {
        fill: #fff2e0;
      }
    </style>
  </defs>
  <path class="cls-1" d="M4454.79,4075.91c-24.56,37.74-56.92,88.62-63.67,160.46-2.09,22.26-1.57,44.72,1.54,67.34,9.66,78.4,50.42,158.65,94.21,238.9h55.73v-102.95c-23.59-45.69-44.25-91.12-56.71-135.95-15.26-52.21-19.4-103.61-12.09-153.63,4.72-32.26,14.6-59.71,19.69-74.16,15.42-43.84,34.25-77.91,48.89-101.13-42.32,37.34-70.18,74.37-87.59,101.13Z"/>
  <path class="cls-1" d="M4473.81,3014.42c4.72-32.26,14.6-59.71,19.69-74.16,15.42-43.84,34.25-77.91,48.89-101.13-42.32,37.34-70.18,74.37-87.59,101.13-24.56,37.74-56.92,88.62-63.67,160.46-2.09,22.26-1.57,44.72,1.54,67.34,9.66,78.4,50.42,158.65,94.21,238.9,18.75,34.36,38.06,68.73,55.73,102.95v-205.9c-23.59-45.69-44.25-91.12-56.71-135.95-15.26-52.21-19.4-103.61-12.09-153.63Z"/>
  <path class="cls-1" d="M4542.6,3974.56v-.17c-.07.13-.14.25-.22.38.07-.07.14-.14.22-.22Z"/>
  <path class="cls-1" d="M4473.81,1878.77c4.72-32.26,14.6-59.71,19.69-74.16,15.42-43.84,34.25-77.91,48.89-101.13-42.32,37.34-70.18,74.37-87.59,101.13-24.56,37.74-56.92,88.62-63.67,160.46-2.09,22.26-1.57,44.72,1.54,67.34,9.66,78.4,50.42,158.65,94.21,238.9,18.75,34.36,38.06,68.73,55.73,102.95v-205.9c-23.59-45.69-44.25-91.12-56.71-135.95-15.26-52.21-19.4-103.61-12.09-153.63Z"/>
  <path class="cls-1" d="M4542.6,2838.91v-.17c-.07.13-.14.25-.22.38.07-.07.14-.14.22-.22Z"/>
  <path class="cls-1" d="M4542.6,1703.26v-.17c-.07.13-.14.25-.22.38.07-.07.14-.14.22-.22Z"/>
  <path class="cls-1" d="M4473.81,743.12c4.72-32.26,14.6-59.71,19.69-74.16,15.42-43.84,34.25-77.91,48.89-101.13-42.32,37.34-70.18,74.37-87.59,101.13-24.56,37.74-56.92,88.62-63.67,160.46-2.09,22.26-1.57,44.72,1.54,67.34,9.66,78.4,50.42,158.65,94.21,238.9,18.75,34.36,38.06,68.73,55.73,102.95v-205.9c-23.59-45.69-44.25-91.12-56.71-135.95-15.26-52.21-19.4-103.61-12.09-153.63Z"/>
  <path class="cls-1" d="M4542.6,567.61v-.17c-.07.13-.14.25-.22.38.07-.07.14-.14.22-.22Z"/>
  <path class="cls-1" d="M4486.87,0c18.75,34.36,38.06,68.73,55.73,102.95V0h-55.73Z"/>
  <path class="cls-1" d="M4312.84,4075.91c-24.56,37.74-56.92,88.62-63.67,160.46-2.09,22.26-1.57,44.72,1.54,67.34,9.66,78.4,50.42,158.65,94.21,238.9h111.46c-43.79-80.25-90.65-160.5-112.44-238.9-15.26-52.21-19.4-103.61-12.09-153.63,4.72-32.26,14.61-59.71,19.69-74.16,15.42-43.84,34.26-77.91,48.89-101.13-42.32,37.34-70.18,74.37-87.59,101.13Z"/>
  <path class="cls-1" d="M4343.94,3168.06c-15.26-52.21-19.4-103.61-12.09-153.63,4.72-32.26,14.61-59.71,19.69-74.16,15.42-43.84,34.26-77.91,48.89-101.13-42.32,37.34-70.18,74.37-87.59,101.13-24.56,37.74-56.92,88.62-63.67,160.46-2.09,22.26-1.57,44.72,1.54,67.34,9.66,78.4,50.42,158.65,94.21,238.9,43.79,80.25,90.65,160.5,112.44,238.9,22.91,78.4,20.76,154.95-7.6,227.8-12.41,34.61-30.73,68.39-49.32,101.13,32.87-32.74,64.09-66.52,88.03-101.13,25.74-35.65,43.73-72.18,54.15-109.39v-160.47c-16.31-64.93-50.24-130.88-86.23-196.84-43.79-80.25-90.65-160.5-112.44-238.9Z"/>
  <path class="cls-1" d="M4343.94,2032.4c-15.26-52.21-19.4-103.61-12.09-153.63,4.72-32.26,14.61-59.71,19.69-74.16,15.42-43.84,34.26-77.91,48.89-101.13-42.32,37.34-70.18,74.37-87.59,101.13-24.56,37.74-56.92,88.62-63.67,160.46-2.09,22.26-1.57,44.72,1.54,67.34,9.66,78.4,50.42,158.65,94.21,238.9,43.79,80.25,90.65,160.5,112.44,238.9,22.91,78.4,20.76,154.95-7.6,227.8-12.41,34.61-30.73,68.39-49.32,101.13,32.87-32.74,64.09-66.52,88.03-101.13,25.74-35.65,43.73-72.18,54.15-109.39v-160.47c-16.31-64.93-50.24-130.88-86.23-196.84-43.79-80.25-90.65-160.5-112.44-238.9Z"/>
  <path class="cls-1" d="M4343.94,896.75c-15.26-52.21-19.4-103.61-12.09-153.63,4.72-32.26,14.61-59.71,19.69-74.16,15.42-43.84,34.26-77.91,48.89-101.13-42.32,37.34-70.18,74.37-87.59,101.13-24.56,37.74-56.92,88.62-63.67,160.46-2.09,22.26-1.57,44.72,1.54,67.34,9.66,78.4,50.42,158.65,94.21,238.9,43.79,80.25,90.65,160.5,112.44,238.9,22.91,78.4,20.76,154.95-7.6,227.8-12.41,34.61-30.73,68.39-49.32,101.13,32.87-32.74,64.09-66.52,88.03-101.13,25.74-35.65,43.73-72.18,54.15-109.39v-160.47c-16.31-64.93-50.24-130.88-86.23-196.84-43.79-80.25-90.65-160.5-112.44-238.9Z"/>
  <path class="cls-1" d="M4344.92,0c43.79,80.25,90.65,160.5,112.44,238.9,22.91,78.4,20.76,154.95-7.6,227.8-12.41,34.61-30.73,68.39-49.32,101.13,32.87-32.74,64.09-66.52,88.03-101.13,25.74-35.65,43.73-72.18,54.15-109.39v-160.47c-16.31-64.93-50.24-130.88-86.23-196.84h-111.46Z"/>
  <path class="cls-1" d="M4201.98,4303.71c-15.26-52.21-19.4-103.61-12.09-153.63,4.72-32.26,14.61-59.71,19.69-74.16,15.42-43.84,34.26-77.91,48.89-101.13-42.32,37.34-70.18,74.37-87.59,101.13-24.56,37.74-56.92,88.62-63.67,160.46-2.09,22.26-1.57,44.72,1.54,67.34,9.66,78.4,50.42,158.65,94.21,238.9h111.46,0c-43.79-80.25-90.65-160.5-112.44-238.9Z"/>
  <path class="cls-1" d="M4408.63,3645.85c-9.66-78.4-50.42-158.65-94.21-238.9-43.79-80.25-90.65-160.5-112.44-238.9-15.26-52.21-19.4-103.61-12.09-153.63,4.72-32.26,14.61-59.71,19.69-74.16,15.42-43.84,34.26-77.91,48.89-101.13-42.32,37.34-70.18,74.37-87.59,101.13-24.56,37.74-56.92,88.62-63.67,160.46-2.09,22.26-1.57,44.72,1.54,67.34,9.66,78.4,50.42,158.65,94.21,238.9,43.79,80.25,90.65,160.5,112.44,238.9,22.91,78.4,20.76,154.95-7.6,227.8-12.41,34.61-30.73,68.39-49.32,101.13,32.87-32.74,64.09-66.52,88.03-101.13,52.61-72.85,72.91-149.4,62.13-227.8Z"/>
  <path class="cls-1" d="M4209.58,1804.61c15.42-43.84,34.26-77.91,48.89-101.13-42.32,37.34-70.18,74.37-87.59,101.13-24.56,37.74-56.92,88.62-63.67,160.46-2.09,22.26-1.57,44.72,1.54,67.34,9.66,78.4,50.42,158.65,94.21,238.9,43.79,80.25,90.65,160.5,112.44,238.9,22.91,78.4,20.76,154.95-7.6,227.8-12.41,34.61-30.73,68.39-49.32,101.13,32.87-32.74,64.09-66.52,88.03-101.13,52.61-72.85,72.91-149.4,62.13-227.8-9.66-78.4-50.42-158.65-94.21-238.9-43.79-80.25-90.65-160.5-112.44-238.9-15.26-52.21-19.4-103.61-12.09-153.63,4.72-32.26,14.61-59.71,19.69-74.16Z"/>
  <path class="cls-1" d="M4209.58,668.96c15.42-43.84,34.26-77.91,48.89-101.13-42.32,37.34-70.18,74.37-87.59,101.13-24.56,37.74-56.92,88.62-63.67,160.46-2.09,22.26-1.57,44.72,1.54,67.34,9.66,78.4,50.42,158.65,94.21,238.9,43.79,80.25,90.65,160.5,112.44,238.9,22.91,78.4,20.76,154.95-7.6,227.8-12.41,34.61-30.73,68.39-49.32,101.13,32.87-32.74,64.09-66.52,88.03-101.13,52.61-72.85,72.91-149.4,62.13-227.8-9.66-78.4-50.42-158.65-94.21-238.9-43.79-80.25-90.65-160.5-112.44-238.9-15.26-52.21-19.4-103.61-12.09-153.63,4.72-32.26,14.61-59.71,19.69-74.16Z"/>
  <path class="cls-1" d="M4307.8,466.69c-12.41,34.61-30.73,68.39-49.32,101.13,32.87-32.74,64.09-66.52,88.03-101.13,52.61-72.85,72.91-149.4,62.13-227.8-9.66-78.4-50.42-158.65-94.21-238.9h-111.46c43.79,80.25,90.65,160.5,112.44,238.9,22.91,78.4,20.76,154.95-7.6,227.8Z"/>
  <path class="cls-1" d="M4060.03,4303.71c-15.26-52.21-19.4-103.61-12.09-153.63,4.72-32.26,14.6-59.71,19.69-74.16,15.42-43.84,34.25-77.91,48.89-101.13-42.32,37.34-70.18,74.37-87.59,101.13-24.56,37.74-56.92,88.62-63.67,160.46-2.09,22.26-1.57,44.72,1.54,67.34,9.66,78.4,50.42,158.65,94.21,238.9h111.46,0c-43.79-80.25-90.65-160.5-112.44-238.9Z"/>
  <path class="cls-1" d="M4266.67,3645.85c-9.66-78.4-50.42-158.65-94.21-238.9-43.79-80.25-90.65-160.5-112.44-238.9-15.26-52.21-19.4-103.61-12.09-153.63,4.72-32.26,14.6-59.71,19.69-74.16,15.42-43.84,34.25-77.91,48.89-101.13-42.32,37.34-70.18,74.37-87.59,101.13-24.56,37.74-56.92,88.62-63.67,160.46-2.09,22.26-1.57,44.72,1.54,67.34,9.66,78.4,50.42,158.65,94.21,238.9,43.8,80.25,90.65,160.5,112.44,238.9,22.91,78.4,20.76,154.95-7.6,227.8-12.41,34.61-30.73,68.39-49.32,101.13,32.87-32.74,64.09-66.52,88.03-101.13,52.61-72.85,72.91-149.4,62.13-227.8Z"/>
  <path class="cls-1" d="M4266.67,2510.2c-9.66-78.4-50.42-158.65-94.21-238.9-43.79-80.25-90.65-160.5-112.44-238.9-15.26-52.21-19.4-103.61-12.09-153.63,4.72-32.26,14.6-59.71,19.69-74.16,15.42-43.84,34.25-77.91,48.89-101.13-42.32,37.34-70.18,74.37-87.59,101.13-24.56,37.74-56.92,88.62-63.67,160.46-2.09,22.26-1.57,44.72,1.54,67.34,9.66,78.4,50.42,158.65,94.21,238.9,43.8,80.25,90.65,160.5,112.44,238.9,22.91,78.4,20.76,154.95-7.6,227.8-12.41,34.61-30.73,68.39-49.32,101.13,32.87-32.74,64.09-66.52,88.03-101.13,52.61-72.85,72.91-149.4,62.13-227.8Z"/>
  <path class="cls-1" d="M4266.67,1374.55c-9.66-78.4-50.42-158.65-94.21-238.9-43.79-80.25-90.65-160.5-112.44-238.9-15.26-52.21-19.4-103.61-12.09-153.63,4.72-32.26,14.6-59.71,19.69-74.16,15.42-43.84,34.25-77.91,48.89-101.13-42.32,37.34-70.18,74.37-87.59,101.13-24.56,37.74-56.92,88.62-63.67,160.46-2.09,22.26-1.57,44.72,1.54,67.34,9.66,78.4,50.42,158.65,94.21,238.9,43.8,80.25,90.65,160.5,112.44,238.9,22.91,78.4,20.76,154.95-7.6,227.8-12.41,34.61-30.73,68.39-49.32,101.13,32.87-32.74,64.09-66.52,88.03-101.13,52.61-72.85,72.91-149.4,62.13-227.8Z"/>
  <path class="cls-1" d="M4165.84,466.69c-12.41,34.61-30.73,68.39-49.32,101.13,32.87-32.74,64.09-66.52,88.03-101.13,52.61-72.85,72.91-149.4,62.13-227.8-9.66-78.4-50.42-158.65-94.21-238.9h-111.46c43.8,80.25,90.65,160.5,112.44,238.9,22.91,78.4,20.76,154.95-7.6,227.8Z"/>
  <path class="cls-1" d="M3918.07,4303.71c-15.26-52.21-19.4-103.61-12.09-153.63,4.72-32.26,14.6-59.71,19.69-74.16,15.42-43.84,34.25-77.91,48.89-101.13-42.32,37.34-70.18,74.37-87.59,101.13-24.56,37.74-56.92,88.62-63.67,160.46-2.09,22.26-1.57,44.72,1.54,67.34,9.66,78.4,50.42,158.65,94.21,238.9h111.46,0c-43.8-80.25-90.65-160.5-112.44-238.9Z"/>
  <path class="cls-1" d="M4124.71,3645.85c-9.66-78.4-50.42-158.65-94.21-238.9-43.79-80.25-90.65-160.5-112.44-238.9-15.26-52.21-19.4-103.61-12.09-153.63,4.72-32.26,14.6-59.71,19.69-74.16,15.42-43.84,34.25-77.91,48.89-101.13-42.32,37.34-70.18,74.37-87.59,101.13-24.56,37.74-56.92,88.62-63.67,160.46-2.09,22.26-1.57,44.72,1.54,67.34,9.66,78.4,50.42,158.65,94.21,238.9,43.79,80.25,90.65,160.5,112.44,238.9,22.91,78.4,20.76,154.95-7.6,227.8-12.41,34.61-30.73,68.39-49.32,101.13,32.87-32.74,64.09-66.52,88.03-101.13,52.61-72.85,72.91-149.4,62.13-227.8Z"/>
  <path class="cls-1" d="M4124.71,2510.2c-9.66-78.4-50.42-158.65-94.21-238.9-43.79-80.25-90.65-160.5-112.44-238.9-15.26-52.21-19.4-103.61-12.09-153.63,4.72-32.26,14.6-59.71,19.69-74.16,15.42-43.84,34.25-77.91,48.89-101.13-42.32,37.34-70.18,74.37-87.59,101.13-24.56,37.74-56.92,88.62-63.67,160.46-2.09,22.26-1.57,44.72,1.54,67.34,9.66,78.4,50.42,158.65,94.21,238.9,43.79,80.25,90.65,160.5,112.44,238.9,22.91,78.4,20.76,154.95-7.6,227.8-12.41,34.61-30.73,68.39-49.32,101.13,32.87-32.74,64.09-66.52,88.03-101.13,52.61-72.85,72.91-149.4,62.13-227.8Z"/>
  <path class="cls-1" d="M3925.67,668.96c15.42-43.84,34.25-77.91,48.89-101.13-42.32,37.34-70.18,74.37-87.59,101.13-24.56,37.74-56.92,88.62-63.67,160.46-2.09,22.26-1.57,44.72,1.54,67.34,9.66,78.4,50.42,158.65,94.21,238.9,43.79,80.25,90.65,160.5,112.44,238.9,22.91,78.4,20.76,154.95-7.6,227.8-12.41,34.61-30.73,68.39-49.32,101.13,32.87-32.74,64.09-66.52,88.03-101.13,52.61-72.85,72.91-149.4,62.13-227.8-9.66-78.4-50.42-158.65-94.21-238.9-43.79-80.25-90.65-160.5-112.44-238.9-15.26-52.21-19.4-103.61-12.09-153.63,4.72-32.26,14.6-59.71,19.69-74.16Z"/>
  <path class="cls-1" d="M4023.89,466.69c-12.41,34.61-30.73,68.39-49.32,101.13,32.87-32.74,64.09-66.52,88.03-101.13,52.61-72.85,72.91-149.4,62.13-227.8-9.66-78.4-50.42-158.65-94.21-238.9h-111.46c43.79,80.25,90.65,160.5,112.44,238.9,22.91,78.4,20.76,154.95-7.6,227.8Z"/>
  <path class="cls-1" d="M3776.11,4303.71c-15.26-52.21-19.4-103.61-12.09-153.63,4.72-32.26,14.6-59.71,19.69-74.16,15.42-43.84,34.25-77.91,48.89-101.13-42.32,37.34-70.18,74.37-87.59,101.13-24.56,37.74-56.92,88.62-63.67,160.46-2.09,22.26-1.57,44.72,1.54,67.34,9.66,78.4,50.42,158.65,94.21,238.9h111.46,0c-43.79-80.25-90.65-160.5-112.44-238.9Z"/>
  <path class="cls-1" d="M3982.76,3645.85c-9.66-78.4-50.42-158.65-94.21-238.9-43.79-80.25-90.65-160.5-112.44-238.9-15.26-52.21-19.4-103.61-12.09-153.63,4.72-32.26,14.6-59.71,19.69-74.16,15.42-43.84,34.25-77.91,48.89-101.13-42.32,37.34-70.18,74.37-87.59,101.13-24.56,37.74-56.92,88.62-63.67,160.46-2.09,22.26-1.57,44.72,1.54,67.34,9.66,78.4,50.42,158.65,94.21,238.9,43.79,80.25,90.65,160.5,112.44,238.9,22.91,78.4,20.76,154.95-7.6,227.8-12.41,34.61-30.73,68.39-49.32,101.13,32.87-32.74,64.09-66.52,88.03-101.13,52.61-72.85,72.91-149.4,62.13-227.8Z"/>
  <path class="cls-1" d="M3982.76,2510.2c-9.66-78.4-50.42-158.65-94.21-238.9-43.79-80.25-90.65-160.5-112.44-238.9-15.26-52.21-19.4-103.61-12.09-153.63,4.72-32.26,14.6-59.71,19.69-74.16,15.42-43.84,34.25-77.91,48.89-101.13-42.32,37.34-70.18,74.37-87.59,101.13-24.56,37.74-56.92,88.62-63.67,160.46-2.09,22.26-1.57,44.72,1.54,67.34,9.66,78.4,50.42,158.65,94.21,238.9,43.79,80.25,90.65,160.5,112.44,238.9,22.91,78.4,20.76,154.95-7.6,227.8-12.41,34.61-30.73,68.39-49.32,101.13,32.87-32.74,64.09-66.52,88.03-101.13,52.61-72.85,72.91-149.4,62.13-227.8Z"/>
  <path class="cls-1" d="M3745.01,668.96c-24.56,37.74-56.92,88.62-63.67,160.46-2.09,22.26-1.57,44.72,1.54,67.34,9.66,78.4,50.42,158.65,94.21,238.9,43.79,80.25,90.65,160.5,112.44,238.9,22.91,78.4,20.76,154.95-7.6,227.8-12.41,34.61-30.73,68.39-49.32,101.13,32.87-32.74,64.09-66.52,88.03-101.13,52.61-72.85,72.91-149.4,62.13-227.8-9.66-78.4-50.42-158.65-94.21-238.9-43.79-80.25-90.65-160.5-112.44-238.9-15.26-52.21-19.4-103.61-12.09-153.63,4.72-32.26,14.6-59.71,19.69-74.16,15.42-43.84,34.25-77.91,48.89-101.13-42.32,37.34-70.18,74.37-87.59,101.13Z"/>
  <path class="cls-1" d="M3881.93,466.69c-12.41,34.61-30.73,68.39-49.32,101.13,32.87-32.74,64.09-66.52,88.03-101.13,52.61-72.85,72.91-149.4,62.13-227.8-9.66-78.4-50.42-158.65-94.21-238.9h-111.46c43.79,80.25,90.65,160.5,112.44,238.9,22.91,78.4,20.76,154.95-7.6,227.8Z"/>
  <path class="cls-1" d="M3634.16,4303.71c-15.26-52.21-19.4-103.61-12.09-153.63,4.72-32.26,14.61-59.71,19.69-74.16,15.42-43.84,34.26-77.91,48.89-101.13-42.32,37.34-70.18,74.37-87.59,101.13-24.56,37.74-56.92,88.62-63.67,160.46-2.09,22.26-1.57,44.72,1.54,67.34,9.66,78.4,50.42,158.65,94.21,238.9h111.46,0c-43.79-80.25-90.65-160.5-112.44-238.9Z"/>
  <path class="cls-1" d="M3840.8,3645.85c-9.66-78.4-50.42-158.65-94.21-238.9-43.79-80.25-90.65-160.5-112.44-238.9-15.26-52.21-19.4-103.61-12.09-153.63,4.72-32.26,14.61-59.71,19.69-74.16,15.42-43.84,34.26-77.91,48.89-101.13-42.32,37.34-70.18,74.37-87.59,101.13-24.56,37.74-56.92,88.62-63.67,160.46-2.09,22.26-1.57,44.72,1.54,67.34,9.66,78.4,50.42,158.65,94.21,238.9,43.79,80.25,90.65,160.5,112.44,238.9,22.91,78.4,20.76,154.95-7.6,227.8-12.41,34.61-30.73,68.39-49.32,101.13,32.87-32.74,64.09-66.52,88.03-101.13,52.61-72.85,72.91-149.4,62.13-227.8Z"/>
  <path class="cls-1" d="M3840.8,2510.2c-9.66-78.4-50.42-158.65-94.21-238.9-43.79-80.25-90.65-160.5-112.44-238.9-15.26-52.21-19.4-103.61-12.09-153.63,4.72-32.26,14.61-59.71,19.69-74.16,15.42-43.84,34.26-77.91,48.89-101.13-42.32,37.34-70.18,74.37-87.59,101.13-24.56,37.74-56.92,88.62-63.67,160.46-2.09,22.26-1.57,44.72,1.54,67.34,9.66,78.4,50.42,158.65,94.21,238.9,43.79,80.25,90.65,160.5,112.44,238.9,22.91,78.4,20.76,154.95-7.6,227.8-12.41,34.61-30.73,68.39-49.32,101.13,32.87-32.74,64.09-66.52,88.03-101.13,52.61-72.85,72.91-149.4,62.13-227.8Z"/>
  <path class="cls-1" d="M3603.06,668.96c-24.56,37.74-56.92,88.62-63.67,160.46-2.09,22.26-1.57,44.72,1.54,67.34,9.66,78.4,50.42,158.65,94.21,238.9,43.79,80.25,90.65,160.5,112.44,238.9,22.91,78.4,20.76,154.95-7.6,227.8-12.41,34.61-30.73,68.39-49.32,101.13,32.87-32.74,64.09-66.52,88.03-101.13,52.61-72.85,72.91-149.4,62.13-227.8-9.66-78.4-50.42-158.65-94.21-238.9-43.79-80.25-90.65-160.5-112.44-238.9-15.26-52.21-19.4-103.61-12.09-153.63,4.72-32.26,14.61-59.71,19.69-74.16,15.42-43.84,34.26-77.91,48.89-101.13-42.32,37.34-70.18,74.37-87.59,101.13Z"/>
  <path class="cls-1" d="M3739.97,466.69c-12.41,34.61-30.73,68.39-49.32,101.13,32.87-32.74,64.09-66.52,88.03-101.13,52.61-72.85,72.91-149.4,62.13-227.8-9.66-78.4-50.42-158.65-94.21-238.9h-111.46c43.79,80.25,90.65,160.5,112.44,238.9,22.91,78.4,20.76,154.95-7.6,227.8Z"/>
  <path class="cls-1" d="M3492.2,4303.71c-15.26-52.21-19.4-103.61-12.09-153.63,4.72-32.26,14.6-59.71,19.69-74.16,15.42-43.84,34.25-77.91,48.89-101.13-42.32,37.34-70.18,74.37-87.59,101.13-24.56,37.74-56.92,88.62-63.67,160.46-2.09,22.26-1.57,44.72,1.54,67.34,9.66,78.4,50.42,158.65,94.21,238.9h111.46,0c-43.79-80.25-90.65-160.5-112.44-238.9Z"/>
  <path class="cls-1" d="M3698.85,3645.85c-9.66-78.4-50.42-158.65-94.21-238.9-43.79-80.25-90.65-160.5-112.44-238.9-15.26-52.21-19.4-103.61-12.09-153.63,4.72-32.26,14.6-59.71,19.69-74.16,15.42-43.84,34.25-77.91,48.89-101.13-42.32,37.34-70.18,74.37-87.59,101.13-24.56,37.74-56.92,88.62-63.67,160.46-2.09,22.26-1.57,44.72,1.54,67.34,9.66,78.4,50.42,158.65,94.21,238.9,43.79,80.25,90.65,160.5,112.44,238.9,22.91,78.4,20.76,154.95-7.6,227.8-12.41,34.61-30.73,68.39-49.32,101.13,32.87-32.74,64.09-66.52,88.03-101.13,52.61-72.85,72.91-149.4,62.13-227.8Z"/>
  <path class="cls-1" d="M3698.85,2510.2c-9.66-78.4-50.42-158.65-94.21-238.9-43.79-80.25-90.65-160.5-112.44-238.9-15.26-52.21-19.4-103.61-12.09-153.63,4.72-32.26,14.6-59.71,19.69-74.16,15.42-43.84,34.25-77.91,48.89-101.13-42.32,37.34-70.18,74.37-87.59,101.13-24.56,37.74-56.92,88.62-63.67,160.46-2.09,22.26-1.57,44.72,1.54,67.34,9.66,78.4,50.42,158.65,94.21,238.9,43.79,80.25,90.65,160.5,112.44,238.9,22.91,78.4,20.76,154.95-7.6,227.8-12.41,34.61-30.73,68.39-49.32,101.13,32.87-32.74,64.09-66.52,88.03-101.13,52.61-72.85,72.91-149.4,62.13-227.8Z"/>
  <path class="cls-1" d="M3461.1,668.96c-24.56,37.74-56.92,88.62-63.67,160.46-2.09,22.26-1.57,44.72,1.54,67.34,9.66,78.4,50.42,158.65,94.21,238.9,43.79,80.25,90.65,160.5,112.44,238.9,22.91,78.4,20.76,154.95-7.6,227.8-12.41,34.61-30.73,68.39-49.32,101.13,32.87-32.74,64.09-66.52,88.03-101.13,52.61-72.85,72.91-149.4,62.13-227.8-9.66-78.4-50.42-158.65-94.21-238.9-43.79-80.25-90.65-160.5-112.44-238.9-15.26-52.21-19.4-103.61-12.09-153.63,4.72-32.26,14.6-59.71,19.69-74.16,15.42-43.84,34.25-77.91,48.89-101.13-42.32,37.34-70.18,74.37-87.59,101.13Z"/>
  <path class="cls-1" d="M3598.02,466.69c-12.41,34.61-30.73,68.39-49.32,101.13,32.87-32.74,64.09-66.52,88.03-101.13,52.61-72.85,72.91-149.4,62.13-227.8-9.66-78.4-50.42-158.65-94.21-238.9h-111.46c43.79,80.25,90.65,160.5,112.44,238.9,22.91,78.4,20.76,154.95-7.6,227.8Z"/>
  <path class="cls-1" d="M3350.24,4303.71c-15.26-52.21-19.4-103.61-12.09-153.63,4.72-32.26,14.6-59.71,19.69-74.16,15.42-43.84,34.25-77.91,48.89-101.13-42.32,37.34-70.18,74.37-87.59,101.13-24.56,37.74-56.92,88.62-63.67,160.46-2.09,22.26-1.57,44.72,1.54,67.34,9.66,78.4,50.42,158.65,94.21,238.9h111.46,0c-43.79-80.25-90.65-160.5-112.44-238.9Z"/>
  <path class="cls-1" d="M3556.89,3645.85c-9.66-78.4-50.42-158.65-94.21-238.9-43.79-80.25-90.65-160.5-112.44-238.9-15.26-52.21-19.4-103.61-12.09-153.63,4.72-32.26,14.6-59.71,19.69-74.16,15.42-43.84,34.25-77.91,48.89-101.13-42.32,37.34-70.18,74.37-87.59,101.13-24.56,37.74-56.92,88.62-63.67,160.46-2.09,22.26-1.57,44.72,1.54,67.34,9.66,78.4,50.42,158.65,94.21,238.9,43.79,80.25,90.65,160.5,112.44,238.9,22.91,78.4,20.76,154.95-7.6,227.8-12.41,34.61-30.73,68.39-49.32,101.13,32.87-32.74,64.09-66.52,88.03-101.13,52.61-72.85,72.91-149.4,62.13-227.8Z"/>
  <path class="cls-1" d="M3556.89,2510.2c-9.66-78.4-50.42-158.65-94.21-238.9-43.79-80.25-90.65-160.5-112.44-238.9-15.26-52.21-19.4-103.61-12.09-153.63,4.72-32.26,14.6-59.71,19.69-74.16,15.42-43.84,34.25-77.91,48.89-101.13-42.32,37.34-70.18,74.37-87.59,101.13-24.56,37.74-56.92,88.62-63.67,160.46-2.09,22.26-1.57,44.72,1.54,67.34,9.66,78.4,50.42,158.65,94.21,238.9,43.79,80.25,90.65,160.5,112.44,238.9,22.91,78.4,20.76,154.95-7.6,227.8-12.41,34.61-30.73,68.39-49.32,101.13,32.87-32.74,64.09-66.52,88.03-101.13,52.61-72.85,72.91-149.4,62.13-227.8Z"/>
  <path class="cls-1" d="M3319.14,668.96c-24.56,37.74-56.92,88.62-63.67,160.46-2.09,22.26-1.57,44.72,1.54,67.34,9.66,78.4,50.42,158.65,94.21,238.9,43.79,80.25,90.65,160.5,112.44,238.9,22.91,78.4,20.76,154.95-7.6,227.8-12.41,34.61-30.73,68.39-49.32,101.13,32.87-32.74,64.09-66.52,88.03-101.13,52.61-72.85,72.91-149.4,62.13-227.8-9.66-78.4-50.42-158.65-94.21-238.9-43.79-80.25-90.65-160.5-112.44-238.9-15.26-52.21-19.4-103.61-12.09-153.63,4.72-32.26,14.6-59.71,19.69-74.16,15.42-43.84,34.25-77.91,48.89-101.13-42.32,37.34-70.18,74.37-87.59,101.13Z"/>
  <path class="cls-1" d="M3456.06,466.69c-12.41,34.61-30.73,68.39-49.32,101.13,32.87-32.74,64.09-66.52,88.03-101.13,52.61-72.85,72.91-149.4,62.13-227.8-9.66-78.4-50.42-158.65-94.21-238.9h-111.46c43.79,80.25,90.65,160.5,112.44,238.9,22.91,78.4,20.76,154.95-7.6,227.8Z"/>
  <path class="cls-1" d="M3208.29,4303.71c-15.26-52.21-19.4-103.61-12.09-153.63,4.72-32.26,14.61-59.71,19.69-74.16,15.42-43.84,34.26-77.91,48.89-101.13-42.32,37.34-70.18,74.37-87.59,101.13-24.56,37.74-56.92,88.62-63.67,160.46-2.09,22.26-1.57,44.72,1.54,67.34,9.66,78.4,50.42,158.65,94.21,238.9h111.46,0c-43.79-80.25-90.65-160.5-112.44-238.9Z"/>
  <path class="cls-1" d="M3414.93,3645.85c-9.66-78.4-50.42-158.65-94.21-238.9-43.79-80.25-90.65-160.5-112.44-238.9-15.26-52.21-19.4-103.61-12.09-153.63,4.72-32.26,14.61-59.71,19.69-74.16,15.42-43.84,34.26-77.91,48.89-101.13-42.32,37.34-70.18,74.37-87.59,101.13-24.56,37.74-56.92,88.62-63.67,160.46-2.09,22.26-1.57,44.72,1.54,67.34,9.66,78.4,50.42,158.65,94.21,238.9,43.79,80.25,90.65,160.5,112.44,238.9,22.91,78.4,20.76,154.95-7.6,227.8-12.41,34.61-30.73,68.39-49.32,101.13,32.87-32.74,64.09-66.52,88.03-101.13,52.61-72.85,72.91-149.4,62.13-227.8Z"/>
  <path class="cls-1" d="M3414.93,2510.2c-9.66-78.4-50.42-158.65-94.21-238.9-43.79-80.25-90.65-160.5-112.44-238.9-15.26-52.21-19.4-103.61-12.09-153.63,4.72-32.26,14.61-59.71,19.69-74.16,15.42-43.84,34.26-77.91,48.89-101.13-42.32,37.34-70.18,74.37-87.59,101.13-24.56,37.74-56.92,88.62-63.67,160.46-2.09,22.26-1.57,44.72,1.54,67.34,9.66,78.4,50.42,158.65,94.21,238.9,43.79,80.25,90.65,160.5,112.44,238.9,22.91,78.4,20.76,154.95-7.6,227.8-12.41,34.61-30.73,68.39-49.32,101.13,32.87-32.74,64.09-66.52,88.03-101.13,52.61-72.85,72.91-149.4,62.13-227.8Z"/>
  <path class="cls-1" d="M3177.19,668.96c-24.56,37.74-56.92,88.62-63.67,160.46-2.09,22.26-1.57,44.72,1.54,67.34,9.66,78.4,50.42,158.65,94.21,238.9,43.79,80.25,90.65,160.5,112.44,238.9,22.91,78.4,20.76,154.95-7.6,227.8-12.41,34.61-30.73,68.39-49.32,101.13,32.87-32.74,64.09-66.52,88.03-101.13,52.61-72.85,72.91-149.4,62.13-227.8-9.66-78.4-50.42-158.65-94.21-238.9-43.79-80.25-90.65-160.5-112.44-238.9-15.26-52.21-19.4-103.61-12.09-153.63,4.72-32.26,14.61-59.71,19.69-74.16,15.42-43.84,34.26-77.91,48.89-101.13-42.32,37.34-70.18,74.37-87.59,101.13Z"/>
  <path class="cls-1" d="M3314.1,466.69c-12.41,34.61-30.73,68.39-49.32,101.13,32.87-32.74,64.09-66.52,88.03-101.13,52.61-72.85,72.91-149.4,62.13-227.8-9.66-78.4-50.42-158.65-94.21-238.9h-111.46c43.79,80.25,90.65,160.5,112.44,238.9,22.91,78.4,20.76,154.95-7.6,227.8Z"/>
  <path class="cls-1" d="M3066.33,4303.71c-15.26-52.21-19.4-103.61-12.09-153.63,4.72-32.26,14.6-59.71,19.69-74.16,15.42-43.84,34.25-77.91,48.89-101.13-42.32,37.34-70.18,74.37-87.59,101.13-24.56,37.74-56.92,88.62-63.67,160.46-2.09,22.26-1.57,44.72,1.54,67.34,9.66,78.4,50.42,158.65,94.21,238.9h111.46,0c-43.79-80.25-90.65-160.5-112.44-238.9Z"/>
  <path class="cls-1" d="M3272.98,3645.85c-9.66-78.4-50.42-158.65-94.21-238.9-43.79-80.25-90.65-160.5-112.44-238.9-15.26-52.21-19.4-103.61-12.09-153.63,4.72-32.26,14.6-59.71,19.69-74.16,15.42-43.84,34.25-77.91,48.89-101.13-42.32,37.34-70.18,74.37-87.59,101.13-24.56,37.74-56.92,88.62-63.67,160.46-2.09,22.26-1.57,44.72,1.54,67.34,9.66,78.4,50.42,158.65,94.21,238.9,43.79,80.25,90.65,160.5,112.44,238.9,22.91,78.4,20.76,154.95-7.6,227.8-12.41,34.61-30.73,68.39-49.32,101.13,32.87-32.74,64.09-66.52,88.03-101.13,52.61-72.85,72.91-149.4,62.13-227.8Z"/>
  <path class="cls-1" d="M3272.98,2510.2c-9.66-78.4-50.42-158.65-94.21-238.9-43.79-80.25-90.65-160.5-112.44-238.9-15.26-52.21-19.4-103.61-12.09-153.63,4.72-32.26,14.6-59.71,19.69-74.16,15.42-43.84,34.25-77.91,48.89-101.13-42.32,37.34-70.18,74.37-87.59,101.13-24.56,37.74-56.92,88.62-63.67,160.46-2.09,22.26-1.57,44.72,1.54,67.34,9.66,78.4,50.42,158.65,94.21,238.9,43.79,80.25,90.65,160.5,112.44,238.9,22.91,78.4,20.76,154.95-7.6,227.8-12.41,34.61-30.73,68.39-49.32,101.13,32.87-32.74,64.09-66.52,88.03-101.13,52.61-72.85,72.91-149.4,62.13-227.8Z"/>
  <path class="cls-1" d="M3035.23,668.96c-24.56,37.74-56.92,88.62-63.67,160.46-2.09,22.26-1.57,44.72,1.54,67.34,9.66,78.4,50.42,158.65,94.21,238.9,43.79,80.25,90.65,160.5,112.44,238.9,22.91,78.4,20.76,154.95-7.6,227.8-12.41,34.61-30.73,68.39-49.32,101.13,32.87-32.74,64.09-66.52,88.03-101.13,52.61-72.85,72.91-149.4,62.13-227.8-9.66-78.4-50.42-158.65-94.21-238.9-43.79-80.25-90.65-160.5-112.44-238.9-15.26-52.21-19.4-103.61-12.09-153.63,4.72-32.26,14.6-59.71,19.69-74.16,15.42-43.84,34.25-77.91,48.89-101.13-42.32,37.34-70.18,74.37-87.59,101.13Z"/>
  <path class="cls-1" d="M3172.15,466.69c-12.41,34.61-30.73,68.39-49.32,101.13,32.87-32.74,64.09-66.52,88.03-101.13,52.61-72.85,72.91-149.4,62.13-227.8-9.66-78.4-50.42-158.65-94.21-238.9h-111.46c43.79,80.25,90.65,160.5,112.44,238.9,22.91,78.4,20.76,154.95-7.6,227.8Z"/>
  <path class="cls-1" d="M2924.37,4303.71c-15.26-52.21-19.4-103.61-12.09-153.63,4.72-32.26,14.6-59.71,19.69-74.16,15.42-43.84,34.25-77.91,48.89-101.13-42.32,37.34-70.18,74.37-87.59,101.13-24.56,37.74-56.92,88.62-63.67,160.46-2.09,22.26-1.57,44.72,1.54,67.34,9.66,78.4,50.42,158.65,94.21,238.9h111.46,0c-43.79-80.25-90.65-160.5-112.44-238.9Z"/>
  <path class="cls-1" d="M3131.02,3645.85c-9.66-78.4-50.42-158.65-94.21-238.9-43.79-80.25-90.65-160.5-112.44-238.9-15.26-52.21-19.4-103.61-12.09-153.63,4.72-32.26,14.6-59.71,19.69-74.16,15.42-43.84,34.25-77.91,48.89-101.13-42.32,37.34-70.18,74.37-87.59,101.13-24.56,37.74-56.92,88.62-63.67,160.46-2.09,22.26-1.57,44.72,1.54,67.34,9.66,78.4,50.42,158.65,94.21,238.9,43.79,80.25,90.65,160.5,112.44,238.9,22.91,78.4,20.76,154.95-7.6,227.8-12.41,34.61-30.73,68.39-49.32,101.13,32.87-32.74,64.09-66.52,88.03-101.13,52.61-72.85,72.91-149.4,62.13-227.8Z"/>
  <path class="cls-1" d="M3131.02,2510.2c-9.66-78.4-50.42-158.65-94.21-238.9-43.79-80.25-90.65-160.5-112.44-238.9-15.26-52.21-19.4-103.61-12.09-153.63,4.72-32.26,14.6-59.71,19.69-74.16,15.42-43.84,34.25-77.91,48.89-101.13-42.32,37.34-70.18,74.37-87.59,101.13-24.56,37.74-56.92,88.62-63.67,160.46-2.09,22.26-1.57,44.72,1.54,67.34,9.66,78.4,50.42,158.65,94.21,238.9,43.79,80.25,90.65,160.5,112.44,238.9,22.91,78.4,20.76,154.95-7.6,227.8-12.41,34.61-30.73,68.39-49.32,101.13,32.87-32.74,64.09-66.52,88.03-101.13,52.61-72.85,72.91-149.4,62.13-227.8Z"/>
  <path class="cls-1" d="M2893.27,668.96c-24.56,37.74-56.92,88.62-63.67,160.46-2.09,22.26-1.57,44.72,1.54,67.34,9.66,78.4,50.42,158.65,94.21,238.9,43.79,80.25,90.65,160.5,112.44,238.9,22.91,78.4,20.76,154.95-7.6,227.8-12.41,34.61-30.73,68.39-49.32,101.13,32.87-32.74,64.09-66.52,88.03-101.13,52.61-72.85,72.91-149.4,62.13-227.8-9.66-78.4-50.42-158.65-94.21-238.9-43.79-80.25-90.65-160.5-112.44-238.9-15.26-52.21-19.4-103.61-12.09-153.63,4.72-32.26,14.6-59.71,19.69-74.16,15.42-43.84,34.25-77.91,48.89-101.13-42.32,37.34-70.18,74.37-87.59,101.13Z"/>
  <path class="cls-1" d="M3030.19,466.69c-12.41,34.61-30.73,68.39-49.32,101.13,32.87-32.74,64.09-66.52,88.03-101.13,52.61-72.85,72.91-149.4,62.13-227.8-9.66-78.4-50.42-158.65-94.21-238.9h-111.46c43.79,80.25,90.65,160.5,112.44,238.9,22.91,78.4,20.76,154.95-7.6,227.8Z"/>
  <path class="cls-1" d="M2782.42,4303.71c-15.26-52.21-19.4-103.61-12.09-153.63,4.72-32.26,14.6-59.71,19.69-74.16,15.42-43.84,34.25-77.91,48.89-101.13-42.32,37.34-70.18,74.37-87.59,101.13-24.56,37.74-56.92,88.62-63.67,160.46-2.09,22.26-1.57,44.72,1.54,67.34,9.66,78.4,50.42,158.65,94.21,238.9h111.46,0c-43.79-80.25-90.65-160.5-112.44-238.9Z"/>
  <path class="cls-1" d="M2989.06,3645.85c-9.66-78.4-50.42-158.65-94.21-238.9-43.79-80.25-90.65-160.5-112.44-238.9-15.26-52.21-19.4-103.61-12.09-153.63,4.72-32.26,14.6-59.71,19.69-74.16,15.42-43.84,34.25-77.91,48.89-101.13-42.32,37.34-70.18,74.37-87.59,101.13-24.56,37.74-56.92,88.62-63.67,160.46-2.09,22.26-1.57,44.72,1.54,67.34,9.66,78.4,50.42,158.65,94.21,238.9,43.79,80.25,90.65,160.5,112.44,238.9,22.91,78.4,20.76,154.95-7.6,227.8-12.41,34.61-30.73,68.39-49.32,101.13,32.87-32.74,64.09-66.52,88.03-101.13,52.61-72.85,72.91-149.4,62.13-227.8Z"/>
  <path class="cls-1" d="M2989.06,2510.2c-9.66-78.4-50.42-158.65-94.21-238.9-43.79-80.25-90.65-160.5-112.44-238.9-15.26-52.21-19.4-103.61-12.09-153.63,4.72-32.26,14.6-59.71,19.69-74.16,15.42-43.84,34.25-77.91,48.89-101.13-42.32,37.34-70.18,74.37-87.59,101.13-24.56,37.74-56.92,88.62-63.67,160.46-2.09,22.26-1.57,44.72,1.54,67.34,9.66,78.4,50.42,158.65,94.21,238.9,43.79,80.25,90.65,160.5,112.44,238.9,22.91,78.4,20.76,154.95-7.6,227.8-12.41,34.61-30.73,68.39-49.32,101.13,32.87-32.74,64.09-66.52,88.03-101.13,52.61-72.85,72.91-149.4,62.13-227.8Z"/>
  <path class="cls-1" d="M2751.32,668.96c-24.56,37.74-56.92,88.62-63.67,160.46-2.09,22.26-1.57,44.72,1.54,67.34,9.66,78.4,50.42,158.65,94.21,238.9,43.79,80.25,90.65,160.5,112.44,238.9,22.91,78.4,20.76,154.95-7.6,227.8-12.41,34.61-30.73,68.39-49.32,101.13,32.87-32.74,64.09-66.52,88.03-101.13,52.61-72.85,72.91-149.4,62.13-227.8-9.66-78.4-50.42-158.65-94.21-238.9-43.79-80.25-90.65-160.5-112.44-238.9-15.26-52.21-19.4-103.61-12.09-153.63,4.72-32.26,14.6-59.71,19.69-74.16,15.42-43.84,34.25-77.91,48.89-101.13-42.32,37.34-70.18,74.37-87.59,101.13Z"/>
  <path class="cls-1" d="M2888.23,466.69c-12.41,34.61-30.73,68.39-49.32,101.13,32.87-32.74,64.09-66.52,88.03-101.13,52.61-72.85,72.91-149.4,62.13-227.8-9.66-78.4-50.42-158.65-94.21-238.9h-111.46c43.79,80.25,90.65,160.5,112.44,238.9,22.91,78.4,20.76,154.95-7.6,227.8Z"/>
  <path class="cls-1" d="M2640.46,4303.71c-15.26-52.21-19.4-103.61-12.09-153.63,4.72-32.26,14.61-59.71,19.69-74.16,15.42-43.84,34.26-77.91,48.89-101.13-42.32,37.34-70.18,74.37-87.59,101.13-24.56,37.74-56.92,88.62-63.67,160.46-2.09,22.26-1.57,44.72,1.54,67.34,9.66,78.4,50.42,158.65,94.21,238.9h111.46,0c-43.79-80.25-90.65-160.5-112.44-238.9Z"/>
  <path class="cls-1" d="M2847.11,3645.85c-9.66-78.4-50.42-158.65-94.21-238.9-43.79-80.25-90.65-160.5-112.44-238.9-15.26-52.21-19.4-103.61-12.09-153.63,4.72-32.26,14.61-59.71,19.69-74.16,15.42-43.84,34.26-77.91,48.89-101.13-42.32,37.34-70.18,74.37-87.59,101.13-24.56,37.74-56.92,88.62-63.67,160.46-2.09,22.26-1.57,44.72,1.54,67.34,9.66,78.4,50.42,158.65,94.21,238.9,43.79,80.25,90.65,160.5,112.44,238.9,22.91,78.4,20.76,154.95-7.6,227.8-12.41,34.61-30.73,68.39-49.32,101.13,32.87-32.74,64.09-66.52,88.03-101.13,52.61-72.85,72.91-149.4,62.13-227.8Z"/>
  <path class="cls-1" d="M2847.11,2510.2c-9.66-78.4-50.42-158.65-94.21-238.9-43.79-80.25-90.65-160.5-112.44-238.9-15.26-52.21-19.4-103.61-12.09-153.63,4.72-32.26,14.61-59.71,19.69-74.16,15.42-43.84,34.26-77.91,48.89-101.13-42.32,37.34-70.18,74.37-87.59,101.13-24.56,37.74-56.92,88.62-63.67,160.46-2.09,22.26-1.57,44.72,1.54,67.34,9.66,78.4,50.42,158.65,94.21,238.9,43.79,80.25,90.65,160.5,112.44,238.9,22.91,78.4,20.76,154.95-7.6,227.8-12.41,34.61-30.73,68.39-49.32,101.13,32.87-32.74,64.09-66.52,88.03-101.13,52.61-72.85,72.91-149.4,62.13-227.8Z"/>
  <path class="cls-1" d="M2609.36,668.96c-24.56,37.74-56.92,88.62-63.67,160.46-2.09,22.26-1.57,44.72,1.54,67.34,9.66,78.4,50.42,158.65,94.21,238.9,43.79,80.25,90.65,160.5,112.44,238.9,22.91,78.4,20.76,154.95-7.6,227.8-12.41,34.61-30.73,68.39-49.32,101.13,32.87-32.74,64.09-66.52,88.03-101.13,52.61-72.85,72.91-149.4,62.13-227.8-9.66-78.4-50.42-158.65-94.21-238.9-43.79-80.25-90.65-160.5-112.44-238.9-15.26-52.21-19.4-103.61-12.09-153.63,4.72-32.26,14.61-59.71,19.69-74.16,15.42-43.84,34.26-77.91,48.89-101.13-42.32,37.34-70.18,74.37-87.59,101.13Z"/>
  <path class="cls-1" d="M2746.28,466.69c-12.41,34.61-30.73,68.39-49.32,101.13,32.87-32.74,64.09-66.52,88.03-101.13,52.61-72.85,72.91-149.4,62.13-227.8-9.66-78.4-50.42-158.65-94.21-238.9h-111.46c43.79,80.25,90.65,160.5,112.44,238.9,22.91,78.4,20.76,154.95-7.6,227.8Z"/>
  <path class="cls-1" d="M2498.51,4303.71c-15.26-52.21-19.4-103.61-12.09-153.63,4.72-32.26,14.6-59.71,19.69-74.16,15.42-43.84,34.25-77.91,48.89-101.13-42.32,37.34-70.18,74.37-87.59,101.13-24.56,37.74-56.92,88.62-63.67,160.46-2.09,22.26-1.57,44.72,1.54,67.34,9.66,78.4,50.42,158.65,94.21,238.9h111.46,0c-43.79-80.25-90.65-160.5-112.44-238.9Z"/>
  <path class="cls-1" d="M2705.15,3645.85c-9.66-78.4-50.42-158.65-94.21-238.9-43.79-80.25-90.65-160.5-112.44-238.9-15.26-52.21-19.4-103.61-12.09-153.63,4.72-32.26,14.6-59.71,19.69-74.16,15.42-43.84,34.25-77.91,48.89-101.13-42.32,37.34-70.18,74.37-87.59,101.13-24.56,37.74-56.92,88.62-63.67,160.46-2.09,22.26-1.57,44.72,1.54,67.34,9.66,78.4,50.42,158.65,94.21,238.9,43.79,80.25,90.65,160.5,112.44,238.9,22.91,78.4,20.76,154.95-7.6,227.8-12.41,34.61-30.73,68.39-49.32,101.13,32.87-32.74,64.09-66.52,88.03-101.13,52.61-72.85,72.91-149.4,62.13-227.8Z"/>
  <path class="cls-1" d="M2705.15,2510.2c-9.66-78.4-50.42-158.65-94.21-238.9-43.79-80.25-90.65-160.5-112.44-238.9-15.26-52.21-19.4-103.61-12.09-153.63,4.72-32.26,14.6-59.71,19.69-74.16,15.42-43.84,34.25-77.91,48.89-101.13-42.32,37.34-70.18,74.37-87.59,101.13-24.56,37.74-56.92,88.62-63.67,160.46-2.09,22.26-1.57,44.72,1.54,67.34,9.66,78.4,50.42,158.65,94.21,238.9,43.79,80.25,90.65,160.5,112.44,238.9,22.91,78.4,20.76,154.95-7.6,227.8-12.41,34.61-30.73,68.39-49.32,101.13,32.87-32.74,64.09-66.52,88.03-101.13,52.61-72.85,72.91-149.4,62.13-227.8Z"/>
  <path class="cls-1" d="M2467.4,668.96c-24.56,37.74-56.92,88.62-63.67,160.46-2.09,22.26-1.57,44.72,1.54,67.34,9.66,78.4,50.42,158.65,94.21,238.9,43.79,80.25,90.65,160.5,112.44,238.9,22.91,78.4,20.76,154.95-7.6,227.8-12.41,34.61-30.73,68.39-49.32,101.13,32.87-32.74,64.09-66.52,88.03-101.13,52.61-72.85,72.91-149.4,62.13-227.8-9.66-78.4-50.42-158.65-94.21-238.9-43.79-80.25-90.65-160.5-112.44-238.9-15.26-52.21-19.4-103.61-12.09-153.63,4.72-32.26,14.6-59.71,19.69-74.16,15.42-43.84,34.25-77.91,48.89-101.13-42.32,37.34-70.18,74.37-87.59,101.13Z"/>
  <path class="cls-1" d="M2604.32,466.69c-12.41,34.61-30.73,68.39-49.32,101.13,32.87-32.74,64.09-66.52,88.03-101.13,52.61-72.85,72.91-149.4,62.13-227.8-9.66-78.4-50.42-158.65-94.21-238.9h-111.46c43.79,80.25,90.65,160.5,112.44,238.9,22.91,78.4,20.76,154.95-7.6,227.8Z"/>
  <path class="cls-1" d="M2356.55,4303.71c-15.26-52.21-19.4-103.61-12.09-153.63,4.72-32.26,14.6-59.71,19.69-74.16,15.42-43.84,34.25-77.91,48.89-101.13-42.32,37.34-70.18,74.37-87.59,101.13-24.56,37.74-56.92,88.62-63.67,160.46-2.09,22.26-1.57,44.72,1.54,67.34,9.66,78.4,50.42,158.65,94.21,238.9h111.46,0c-43.79-80.25-90.65-160.5-112.44-238.9Z"/>
  <path class="cls-1" d="M2563.19,3645.85c-9.66-78.4-50.42-158.65-94.21-238.9-43.79-80.25-90.65-160.5-112.44-238.9-15.26-52.21-19.4-103.61-12.09-153.63,4.72-32.26,14.6-59.71,19.69-74.16,15.42-43.84,34.25-77.91,48.89-101.13-42.32,37.34-70.18,74.37-87.59,101.13-24.56,37.74-56.92,88.62-63.67,160.46-2.09,22.26-1.57,44.72,1.54,67.34,9.66,78.4,50.42,158.65,94.21,238.9,43.79,80.25,90.65,160.5,112.44,238.9,22.91,78.4,20.76,154.95-7.6,227.8-12.41,34.61-30.73,68.39-49.32,101.13,32.87-32.74,64.09-66.52,88.03-101.13,52.61-72.85,72.91-149.4,62.13-227.8Z"/>
  <path class="cls-1" d="M2563.19,2510.2c-9.66-78.4-50.42-158.65-94.21-238.9-43.79-80.25-90.65-160.5-112.44-238.9-15.26-52.21-19.4-103.61-12.09-153.63,4.72-32.26,14.6-59.71,19.69-74.16,15.42-43.84,34.25-77.91,48.89-101.13-42.32,37.34-70.18,74.37-87.59,101.13-24.56,37.74-56.92,88.62-63.67,160.46-2.09,22.26-1.57,44.72,1.54,67.34,9.66,78.4,50.42,158.65,94.21,238.9,43.79,80.25,90.65,160.5,112.44,238.9,22.91,78.4,20.76,154.95-7.6,227.8-12.41,34.61-30.73,68.39-49.32,101.13,32.87-32.74,64.09-66.52,88.03-101.13,52.61-72.85,72.91-149.4,62.13-227.8Z"/>
  <path class="cls-1" d="M2325.45,668.96c-24.56,37.74-56.92,88.62-63.67,160.46-2.09,22.26-1.57,44.72,1.54,67.34,9.66,78.4,50.42,158.65,94.21,238.9,43.79,80.25,90.65,160.5,112.44,238.9,22.91,78.4,20.76,154.95-7.6,227.8-12.41,34.61-30.73,68.39-49.32,101.13,32.87-32.74,64.09-66.52,88.03-101.13,52.61-72.85,72.91-149.4,62.13-227.8-9.66-78.4-50.42-158.65-94.21-238.9-43.79-80.25-90.65-160.5-112.44-238.9-15.26-52.21-19.4-103.61-12.09-153.63,4.72-32.26,14.6-59.71,19.69-74.16,15.42-43.84,34.25-77.91,48.89-101.13-42.32,37.34-70.18,74.37-87.59,101.13Z"/>
  <path class="cls-1" d="M2462.37,466.69c-12.41,34.61-30.73,68.39-49.32,101.13,32.87-32.74,64.09-66.52,88.03-101.13,52.61-72.85,72.91-149.4,62.13-227.8-9.66-78.4-50.42-158.65-94.21-238.9h-111.46c43.79,80.25,90.65,160.5,112.44,238.9,22.91,78.4,20.76,154.95-7.6,227.8Z"/>
  <path class="cls-1" d="M2214.59,4303.71c-15.26-52.21-19.4-103.61-12.09-153.63,4.72-32.26,14.61-59.71,19.69-74.16,15.42-43.84,34.26-77.91,48.89-101.13-42.32,37.34-70.18,74.37-87.59,101.13-24.56,37.74-56.92,88.62-63.67,160.46-2.09,22.26-1.57,44.72,1.54,67.34,9.66,78.4,50.42,158.65,94.21,238.9h111.46,0c-43.79-80.25-90.65-160.5-112.44-238.9Z"/>
  <path class="cls-1" d="M2421.24,3645.85c-9.66-78.4-50.42-158.65-94.21-238.9-43.79-80.25-90.65-160.5-112.44-238.9-15.26-52.21-19.4-103.61-12.09-153.63,4.72-32.26,14.61-59.71,19.69-74.16,15.42-43.84,34.26-77.91,48.89-101.13-42.32,37.34-70.18,74.37-87.59,101.13-24.56,37.74-56.92,88.62-63.67,160.46-2.09,22.26-1.57,44.72,1.54,67.34,9.66,78.4,50.42,158.65,94.21,238.9,43.79,80.25,90.65,160.5,112.44,238.9,22.91,78.4,20.76,154.95-7.6,227.8-12.41,34.61-30.73,68.39-49.32,101.13,32.87-32.74,64.09-66.52,88.03-101.13,52.61-72.85,72.91-149.4,62.13-227.8Z"/>
  <path class="cls-1" d="M2421.24,2510.2c-9.66-78.4-50.42-158.65-94.21-238.9-43.79-80.25-90.65-160.5-112.44-238.9-15.26-52.21-19.4-103.61-12.09-153.63,4.72-32.26,14.61-59.71,19.69-74.16,15.42-43.84,34.26-77.91,48.89-101.13-42.32,37.34-70.18,74.37-87.59,101.13-24.56,37.74-56.92,88.62-63.67,160.46-2.09,22.26-1.57,44.72,1.54,67.34,9.66,78.4,50.42,158.65,94.21,238.9,43.79,80.25,90.65,160.5,112.44,238.9,22.91,78.4,20.76,154.95-7.6,227.8-12.41,34.61-30.73,68.39-49.32,101.13,32.87-32.74,64.09-66.52,88.03-101.13,52.61-72.85,72.91-149.4,62.13-227.8Z"/>
  <path class="cls-1" d="M2183.49,668.96c-24.56,37.74-56.92,88.62-63.67,160.46-2.09,22.26-1.57,44.72,1.54,67.34,9.66,78.4,50.42,158.65,94.21,238.9,43.79,80.25,90.65,160.5,112.44,238.9,22.91,78.4,20.76,154.95-7.6,227.8-12.41,34.61-30.73,68.39-49.32,101.13,32.87-32.74,64.09-66.52,88.03-101.13,52.61-72.85,72.91-149.4,62.13-227.8-9.66-78.4-50.42-158.65-94.21-238.9-43.79-80.25-90.65-160.5-112.44-238.9-15.26-52.21-19.4-103.61-12.09-153.63,4.72-32.26,14.61-59.71,19.69-74.16,15.42-43.84,34.26-77.91,48.89-101.13-42.32,37.34-70.18,74.37-87.59,101.13Z"/>
  <path class="cls-1" d="M2320.41,466.69c-12.41,34.61-30.73,68.39-49.32,101.13,32.87-32.74,64.09-66.52,88.03-101.13,52.61-72.85,72.91-149.4,62.13-227.8-9.66-78.4-50.42-158.65-94.21-238.9h-111.46c43.79,80.25,90.65,160.5,112.44,238.9,22.91,78.4,20.76,154.95-7.6,227.8Z"/>
  <path class="cls-1" d="M2072.64,4303.71c-15.26-52.21-19.4-103.61-12.09-153.63,4.72-32.26,14.6-59.71,19.69-74.16,15.42-43.84,34.25-77.91,48.89-101.13-42.32,37.34-70.18,74.37-87.59,101.13-24.56,37.74-56.92,88.62-63.67,160.46-2.09,22.26-1.57,44.72,1.54,67.34,9.66,78.4,50.42,158.65,94.21,238.9h111.46,0c-43.79-80.25-90.65-160.5-112.44-238.9Z"/>
  <path class="cls-1" d="M2279.28,3645.85c-9.66-78.4-50.42-158.65-94.21-238.9-43.79-80.25-90.65-160.5-112.44-238.9-15.26-52.21-19.4-103.61-12.09-153.63,4.72-32.26,14.6-59.71,19.69-74.16,15.42-43.84,34.25-77.91,48.89-101.13-42.32,37.34-70.18,74.37-87.59,101.13-24.56,37.74-56.92,88.62-63.67,160.46-2.09,22.26-1.57,44.72,1.54,67.34,9.66,78.4,50.42,158.65,94.21,238.9,43.79,80.25,90.65,160.5,112.44,238.9,22.91,78.4,20.76,154.95-7.6,227.8-12.41,34.61-30.73,68.39-49.32,101.13,32.87-32.74,64.09-66.52,88.03-101.13,52.61-72.85,72.91-149.4,62.13-227.8Z"/>
  <path class="cls-1" d="M2279.28,2510.2c-9.66-78.4-50.42-158.65-94.21-238.9-43.79-80.25-90.65-160.5-112.44-238.9-15.26-52.21-19.4-103.61-12.09-153.63,4.72-32.26,14.6-59.71,19.69-74.16,15.42-43.84,34.25-77.91,48.89-101.13-42.32,37.34-70.18,74.37-87.59,101.13-24.56,37.74-56.92,88.62-63.67,160.46-2.09,22.26-1.57,44.72,1.54,67.34,9.66,78.4,50.42,158.65,94.21,238.9,43.79,80.25,90.65,160.5,112.44,238.9,22.91,78.4,20.76,154.95-7.6,227.8-12.41,34.61-30.73,68.39-49.32,101.13,32.87-32.74,64.09-66.52,88.03-101.13,52.61-72.85,72.91-149.4,62.13-227.8Z"/>
  <path class="cls-1" d="M2041.54,668.96c-24.56,37.74-56.92,88.62-63.67,160.46-2.09,22.26-1.57,44.72,1.54,67.34,9.66,78.4,50.42,158.65,94.21,238.9,43.79,80.25,90.65,160.5,112.44,238.9,22.91,78.4,20.76,154.95-7.6,227.8-12.41,34.61-30.73,68.39-49.32,101.13,32.87-32.74,64.09-66.52,88.03-101.13,52.61-72.85,72.91-149.4,62.13-227.8-9.66-78.4-50.42-158.65-94.21-238.9-43.79-80.25-90.65-160.5-112.44-238.9-15.26-52.21-19.4-103.61-12.09-153.63,4.72-32.26,14.6-59.71,19.69-74.16,15.42-43.84,34.25-77.91,48.89-101.13-42.32,37.34-70.18,74.37-87.59,101.13Z"/>
  <path class="cls-1" d="M2178.45,466.69c-12.41,34.61-30.73,68.39-49.32,101.13,32.87-32.74,64.09-66.52,88.03-101.13,52.61-72.85,72.91-149.4,62.13-227.8-9.66-78.4-50.42-158.65-94.21-238.9h-111.46c43.79,80.25,90.65,160.5,112.44,238.9,22.91,78.4,20.76,154.95-7.6,227.8Z"/>
  <path class="cls-1" d="M1930.68,4303.71c-15.26-52.21-19.4-103.61-12.09-153.63,4.72-32.26,14.6-59.71,19.69-74.16,15.42-43.84,34.25-77.91,48.89-101.13-42.32,37.34-70.18,74.37-87.59,101.13-24.56,37.74-56.92,88.62-63.67,160.46-2.09,22.26-1.57,44.72,1.54,67.34,9.66,78.4,50.42,158.65,94.21,238.9h111.46s0,0,0,0c-43.79-80.25-90.65-160.5-112.44-238.9Z"/>
  <path class="cls-1" d="M2137.33,3645.85c-9.66-78.4-50.42-158.65-94.21-238.9-43.79-80.25-90.65-160.5-112.44-238.9-15.26-52.21-19.4-103.61-12.09-153.63,4.72-32.26,14.6-59.71,19.69-74.16,15.42-43.84,34.25-77.91,48.89-101.13-42.32,37.34-70.18,74.37-87.59,101.13-24.56,37.74-56.92,88.62-63.67,160.46-2.09,22.26-1.57,44.72,1.54,67.34,9.66,78.4,50.42,158.65,94.21,238.9,43.79,80.25,90.65,160.5,112.44,238.9,22.91,78.4,20.76,154.95-7.6,227.8-12.41,34.61-30.73,68.39-49.32,101.13,32.87-32.74,64.09-66.52,88.03-101.13,52.61-72.85,72.91-149.4,62.13-227.8Z"/>
  <path class="cls-1" d="M2137.33,2510.2c-9.66-78.4-50.42-158.65-94.21-238.9-43.79-80.25-90.65-160.5-112.44-238.9-15.26-52.21-19.4-103.61-12.09-153.63,4.72-32.26,14.6-59.71,19.69-74.16,15.42-43.84,34.25-77.91,48.89-101.13-42.32,37.34-70.18,74.37-87.59,101.13-24.56,37.74-56.92,88.62-63.67,160.46-2.09,22.26-1.57,44.72,1.54,67.34,9.66,78.4,50.42,158.65,94.21,238.9,43.79,80.25,90.65,160.5,112.44,238.9,22.91,78.4,20.76,154.95-7.6,227.8-12.41,34.61-30.73,68.39-49.32,101.13,32.87-32.74,64.09-66.52,88.03-101.13,52.61-72.85,72.91-149.4,62.13-227.8Z"/>
  <path class="cls-1" d="M1899.58,668.96c-24.56,37.74-56.92,88.62-63.67,160.46-2.09,22.26-1.57,44.72,1.54,67.34,9.66,78.4,50.42,158.65,94.21,238.9,43.79,80.25,90.65,160.5,112.44,238.9,22.91,78.4,20.76,154.95-7.6,227.8-12.41,34.61-30.73,68.39-49.32,101.13,32.87-32.74,64.09-66.52,88.03-101.13,52.61-72.85,72.91-149.4,62.13-227.8-9.66-78.4-50.42-158.65-94.21-238.9-43.79-80.25-90.65-160.5-112.44-238.9-15.26-52.21-19.4-103.61-12.09-153.63,4.72-32.26,14.6-59.71,19.69-74.16,15.42-43.84,34.25-77.91,48.89-101.13-42.32,37.34-70.18,74.37-87.59,101.13Z"/>
  <path class="cls-1" d="M2036.5,466.69c-12.41,34.61-30.73,68.39-49.32,101.13,32.87-32.74,64.09-66.52,88.03-101.13,52.61-72.85,72.91-149.4,62.13-227.8-9.66-78.4-50.42-158.65-94.21-238.9h-111.46c43.79,80.25,90.65,160.5,112.44,238.9,22.91,78.4,20.76,154.95-7.6,227.8Z"/>
  <path class="cls-1" d="M1788.72,4303.71c-15.26-52.21-19.4-103.61-12.09-153.63,4.72-32.26,14.6-59.71,19.69-74.16,15.42-43.84,34.25-77.91,48.89-101.13-42.32,37.34-70.18,74.37-87.59,101.13-24.56,37.74-56.92,88.62-63.67,160.46-2.09,22.26-1.57,44.72,1.54,67.34,9.66,78.4,50.42,158.65,94.21,238.9h111.46,0c-43.79-80.25-90.65-160.5-112.44-238.9Z"/>
  <path class="cls-1" d="M1995.37,3645.85c-9.66-78.4-50.42-158.65-94.21-238.9-43.79-80.25-90.65-160.5-112.44-238.9-15.26-52.21-19.4-103.61-12.09-153.63,4.72-32.26,14.6-59.71,19.69-74.16,15.42-43.84,34.25-77.91,48.89-101.13-42.32,37.34-70.18,74.37-87.59,101.13-24.56,37.74-56.92,88.62-63.67,160.46-2.09,22.26-1.57,44.72,1.54,67.34,9.66,78.4,50.42,158.65,94.21,238.9,43.79,80.25,90.65,160.5,112.44,238.9,22.91,78.4,20.76,154.95-7.6,227.8-12.41,34.61-30.73,68.39-49.32,101.13,32.87-32.74,64.09-66.52,88.03-101.13,52.61-72.85,72.91-149.4,62.13-227.8Z"/>
  <path class="cls-1" d="M1995.37,2510.2c-9.66-78.4-50.42-158.65-94.21-238.9-43.79-80.25-90.65-160.5-112.44-238.9-15.26-52.21-19.4-103.61-12.09-153.63,4.72-32.26,14.6-59.71,19.69-74.16,15.42-43.84,34.25-77.91,48.89-101.13-42.32,37.34-70.18,74.37-87.59,101.13-24.56,37.74-56.92,88.62-63.67,160.46-2.09,22.26-1.57,44.72,1.54,67.34,9.66,78.4,50.42,158.65,94.21,238.9,43.79,80.25,90.65,160.5,112.44,238.9,22.91,78.4,20.76,154.95-7.6,227.8-12.41,34.61-30.73,68.39-49.32,101.13,32.87-32.74,64.09-66.52,88.03-101.13,52.61-72.85,72.91-149.4,62.13-227.8Z"/>
  <path class="cls-1" d="M1757.62,668.96c-24.56,37.74-56.92,88.62-63.67,160.46-2.09,22.26-1.57,44.72,1.54,67.34,9.66,78.4,50.42,158.65,94.21,238.9,43.79,80.25,90.65,160.5,112.44,238.9,22.91,78.4,20.76,154.95-7.6,227.8-12.41,34.61-30.73,68.39-49.32,101.13,32.87-32.74,64.09-66.52,88.03-101.13,52.61-72.85,72.91-149.4,62.13-227.8-9.66-78.4-50.42-158.65-94.21-238.9-43.79-80.25-90.65-160.5-112.44-238.9-15.26-52.21-19.4-103.61-12.09-153.63,4.72-32.26,14.6-59.71,19.69-74.16,15.42-43.84,34.25-77.91,48.89-101.13-42.32,37.34-70.18,74.37-87.59,101.13Z"/>
  <path class="cls-1" d="M1894.54,466.69c-12.41,34.61-30.73,68.39-49.32,101.13,32.87-32.74,64.09-66.52,88.03-101.13,52.61-72.85,72.91-149.4,62.13-227.8-9.66-78.4-50.42-158.65-94.21-238.9h-111.46c43.79,80.25,90.65,160.5,112.44,238.9,22.91,78.4,20.76,154.95-7.6,227.8Z"/>
  <path class="cls-1" d="M1646.77,4303.71c-15.26-52.21-19.4-103.61-12.09-153.63,4.72-32.26,14.6-59.71,19.69-74.16,15.42-43.84,34.25-77.91,48.89-101.13-42.32,37.34-70.18,74.37-87.59,101.13-24.56,37.74-56.92,88.62-63.67,160.46-2.09,22.26-1.57,44.72,1.54,67.34,9.66,78.4,50.42,158.65,94.21,238.9h111.46,0c-43.79-80.25-90.65-160.5-112.44-238.9Z"/>
  <path class="cls-1" d="M1853.41,3645.85c-9.66-78.4-50.42-158.65-94.21-238.9-43.79-80.25-90.65-160.5-112.44-238.9-15.26-52.21-19.4-103.61-12.09-153.63,4.72-32.26,14.6-59.71,19.69-74.16,15.42-43.84,34.25-77.91,48.89-101.13-42.32,37.34-70.18,74.37-87.59,101.13-24.56,37.74-56.92,88.62-63.67,160.46-2.09,22.26-1.57,44.72,1.54,67.34,9.66,78.4,50.42,158.65,94.21,238.9,43.79,80.25,90.65,160.5,112.44,238.9,22.91,78.4,20.76,154.95-7.6,227.8-12.41,34.61-30.73,68.39-49.32,101.13,32.87-32.74,64.09-66.52,88.03-101.13,52.61-72.85,72.91-149.4,62.13-227.8Z"/>
  <path class="cls-1" d="M1853.41,2510.2c-9.66-78.4-50.42-158.65-94.21-238.9-43.79-80.25-90.65-160.5-112.44-238.9-15.26-52.21-19.4-103.61-12.09-153.63,4.72-32.26,14.6-59.71,19.69-74.16,15.42-43.84,34.25-77.91,48.89-101.13-42.32,37.34-70.18,74.37-87.59,101.13-24.56,37.74-56.92,88.62-63.67,160.46-2.09,22.26-1.57,44.72,1.54,67.34,9.66,78.4,50.42,158.65,94.21,238.9,43.79,80.25,90.65,160.5,112.44,238.9,22.91,78.4,20.76,154.95-7.6,227.8-12.41,34.61-30.73,68.39-49.32,101.13,32.87-32.74,64.09-66.52,88.03-101.13,52.61-72.85,72.91-149.4,62.13-227.8Z"/>
  <path class="cls-1" d="M1615.67,668.96c-24.56,37.74-56.92,88.62-63.67,160.46-2.09,22.26-1.57,44.72,1.54,67.34,9.66,78.4,50.42,158.65,94.21,238.9,43.79,80.25,90.65,160.5,112.44,238.9,22.91,78.4,20.76,154.95-7.6,227.8-12.41,34.61-30.73,68.39-49.32,101.13,32.87-32.74,64.09-66.52,88.03-101.13,52.61-72.85,72.91-149.4,62.13-227.8-9.66-78.4-50.42-158.65-94.21-238.9-43.79-80.25-90.65-160.5-112.44-238.9-15.26-52.21-19.4-103.61-12.09-153.63,4.72-32.26,14.6-59.71,19.69-74.16,15.42-43.84,34.25-77.91,48.89-101.13-42.32,37.34-70.18,74.37-87.59,101.13Z"/>
  <path class="cls-1" d="M1752.58,466.69c-12.41,34.61-30.73,68.39-49.32,101.13,32.87-32.74,64.09-66.52,88.03-101.13,52.61-72.85,72.91-149.4,62.13-227.8-9.66-78.4-50.42-158.65-94.21-238.9h-111.46c43.79,80.25,90.65,160.5,112.44,238.9,22.91,78.4,20.76,154.95-7.6,227.8Z"/>
  <path class="cls-1" d="M1504.81,4303.71c-15.26-52.21-19.4-103.61-12.09-153.63,4.72-32.26,14.6-59.71,19.69-74.16,15.42-43.84,34.26-77.91,48.89-101.13-42.32,37.34-70.18,74.37-87.59,101.13-24.56,37.74-56.92,88.62-63.67,160.46-2.09,22.26-1.57,44.72,1.54,67.34,9.66,78.4,50.42,158.65,94.21,238.9h111.46,0c-43.79-80.25-90.65-160.5-112.44-238.9Z"/>
  <path class="cls-1" d="M1711.46,3645.85c-9.66-78.4-50.42-158.65-94.21-238.9-43.79-80.25-90.65-160.5-112.44-238.9-15.26-52.21-19.4-103.61-12.09-153.63,4.72-32.26,14.6-59.71,19.69-74.16,15.42-43.84,34.26-77.91,48.89-101.13-42.32,37.34-70.18,74.37-87.59,101.13-24.56,37.74-56.92,88.62-63.67,160.46-2.09,22.26-1.57,44.72,1.54,67.34,9.66,78.4,50.42,158.65,94.21,238.9,43.79,80.25,90.65,160.5,112.44,238.9,22.91,78.4,20.76,154.95-7.6,227.8-12.41,34.61-30.73,68.39-49.32,101.13,32.87-32.74,64.09-66.52,88.03-101.13,52.61-72.85,72.91-149.4,62.13-227.8Z"/>
  <path class="cls-1" d="M1711.46,2510.2c-9.66-78.4-50.42-158.65-94.21-238.9-43.79-80.25-90.65-160.5-112.44-238.9-15.26-52.21-19.4-103.61-12.09-153.63,4.72-32.26,14.6-59.71,19.69-74.16,15.42-43.84,34.26-77.91,48.89-101.13-42.32,37.34-70.18,74.37-87.59,101.13-24.56,37.74-56.92,88.62-63.67,160.46-2.09,22.26-1.57,44.72,1.54,67.34,9.66,78.4,50.42,158.65,94.21,238.9,43.79,80.25,90.65,160.5,112.44,238.9,22.91,78.4,20.76,154.95-7.6,227.8-12.41,34.61-30.73,68.39-49.32,101.13,32.87-32.74,64.09-66.52,88.03-101.13,52.61-72.85,72.91-149.4,62.13-227.8Z"/>
  <path class="cls-1" d="M1473.71,668.96c-24.56,37.74-56.92,88.62-63.67,160.46-2.09,22.26-1.57,44.72,1.54,67.34,9.66,78.4,50.42,158.65,94.21,238.9,43.79,80.25,90.65,160.5,112.44,238.9,22.91,78.4,20.76,154.95-7.6,227.8-12.41,34.61-30.73,68.39-49.32,101.13,32.87-32.74,64.09-66.52,88.03-101.13,52.61-72.85,72.91-149.4,62.13-227.8-9.66-78.4-50.42-158.65-94.21-238.9-43.79-80.25-90.65-160.5-112.44-238.9-15.26-52.21-19.4-103.61-12.09-153.63,4.72-32.26,14.6-59.71,19.69-74.16,15.42-43.84,34.26-77.91,48.89-101.13-42.32,37.34-70.18,74.37-87.59,101.13Z"/>
  <path class="cls-1" d="M1610.63,466.69c-12.41,34.61-30.73,68.39-49.32,101.13,32.87-32.74,64.09-66.52,88.03-101.13,52.61-72.85,72.91-149.4,62.13-227.8-9.66-78.4-50.42-158.65-94.21-238.9h-111.46c43.79,80.25,90.65,160.5,112.44,238.9,22.91,78.4,20.76,154.95-7.6,227.8Z"/>
  <path class="cls-1" d="M1362.86,4303.71c-15.26-52.21-19.4-103.61-12.09-153.63,4.72-32.26,14.6-59.71,19.69-74.16,15.42-43.84,34.26-77.91,48.89-101.13-42.32,37.34-70.18,74.37-87.59,101.13-24.56,37.74-56.92,88.62-63.67,160.46-2.09,22.26-1.57,44.72,1.54,67.34,9.66,78.4,50.42,158.65,94.21,238.9h111.46s0,0,0,0c-43.79-80.25-90.65-160.5-112.44-238.9Z"/>
  <path class="cls-1" d="M1569.5,3645.85c-9.66-78.4-50.42-158.65-94.21-238.9-43.79-80.25-90.65-160.5-112.44-238.9-15.26-52.21-19.4-103.61-12.09-153.63,4.72-32.26,14.6-59.71,19.69-74.16,15.42-43.84,34.26-77.91,48.89-101.13-42.32,37.34-70.18,74.37-87.59,101.13-24.56,37.74-56.92,88.62-63.67,160.46-2.09,22.26-1.57,44.72,1.54,67.34,9.66,78.4,50.42,158.65,94.21,238.9,43.79,80.25,90.65,160.5,112.44,238.9,22.91,78.4,20.76,154.95-7.6,227.8-12.41,34.61-30.73,68.39-49.32,101.13,32.87-32.74,64.09-66.52,88.03-101.13,52.61-72.85,72.91-149.4,62.13-227.8Z"/>
  <path class="cls-1" d="M1569.5,2510.2c-9.66-78.4-50.42-158.65-94.21-238.9-43.79-80.25-90.65-160.5-112.44-238.9-15.26-52.21-19.4-103.61-12.09-153.63,4.72-32.26,14.6-59.71,19.69-74.16,15.42-43.84,34.26-77.91,48.89-101.13-42.32,37.34-70.18,74.37-87.59,101.13-24.56,37.74-56.92,88.62-63.67,160.46-2.09,22.26-1.57,44.72,1.54,67.34,9.66,78.4,50.42,158.65,94.21,238.9,43.79,80.25,90.65,160.5,112.44,238.9,22.91,78.4,20.76,154.95-7.6,227.8-12.41,34.61-30.73,68.39-49.32,101.13,32.87-32.74,64.09-66.52,88.03-101.13,52.61-72.85,72.91-149.4,62.13-227.8Z"/>
  <path class="cls-1" d="M1331.75,668.96c-24.56,37.74-56.92,88.62-63.67,160.46-2.09,22.26-1.57,44.72,1.54,67.34,9.66,78.4,50.42,158.65,94.21,238.9,43.79,80.25,90.65,160.5,112.44,238.9,22.91,78.4,20.76,154.95-7.6,227.8-12.41,34.61-30.73,68.39-49.32,101.13,32.87-32.74,64.09-66.52,88.03-101.13,52.61-72.85,72.91-149.4,62.13-227.8-9.66-78.4-50.42-158.65-94.21-238.9-43.79-80.25-90.65-160.5-112.44-238.9-15.26-52.21-19.4-103.61-12.09-153.63,4.72-32.26,14.6-59.71,19.69-74.16,15.42-43.84,34.26-77.91,48.89-101.13-42.32,37.34-70.18,74.37-87.59,101.13Z"/>
  <path class="cls-1" d="M1468.67,466.69c-12.41,34.61-30.73,68.39-49.32,101.13,32.87-32.74,64.09-66.52,88.03-101.13,52.61-72.85,72.91-149.4,62.13-227.8-9.66-78.4-50.42-158.65-94.21-238.9h-111.46c43.79,80.25,90.65,160.5,112.44,238.9,22.91,78.4,20.76,154.95-7.6,227.8Z"/>
  <path class="cls-1" d="M1220.9,4303.71c-15.26-52.21-19.4-103.61-12.09-153.63,4.72-32.26,14.6-59.71,19.69-74.16,15.42-43.84,34.26-77.91,48.89-101.13-42.32,37.34-70.18,74.37-87.59,101.13-24.56,37.74-56.92,88.62-63.67,160.46-2.09,22.26-1.57,44.72,1.54,67.34,9.66,78.4,50.42,158.65,94.21,238.9h111.46,0c-43.79-80.25-90.65-160.5-112.44-238.9Z"/>
  <path class="cls-1" d="M1427.54,3645.85c-9.66-78.4-50.42-158.65-94.21-238.9-43.79-80.25-90.65-160.5-112.44-238.9-15.26-52.21-19.4-103.61-12.09-153.63,4.72-32.26,14.6-59.71,19.69-74.16,15.42-43.84,34.26-77.91,48.89-101.13-42.32,37.34-70.18,74.37-87.59,101.13-24.56,37.74-56.92,88.62-63.67,160.46-2.09,22.26-1.57,44.72,1.54,67.34,9.66,78.4,50.42,158.65,94.21,238.9,43.79,80.25,90.65,160.5,112.44,238.9,22.91,78.4,20.76,154.95-7.6,227.8-12.41,34.61-30.73,68.39-49.32,101.13,32.87-32.74,64.09-66.52,88.03-101.13,52.61-72.85,72.91-149.4,62.13-227.8Z"/>
  <path class="cls-1" d="M1427.54,2510.2c-9.66-78.4-50.42-158.65-94.21-238.9-43.79-80.25-90.65-160.5-112.44-238.9-15.26-52.21-19.4-103.61-12.09-153.63,4.72-32.26,14.6-59.71,19.69-74.16,15.42-43.84,34.26-77.91,48.89-101.13-42.32,37.34-70.18,74.37-87.59,101.13-24.56,37.74-56.92,88.62-63.67,160.46-2.09,22.26-1.57,44.72,1.54,67.34,9.66,78.4,50.42,158.65,94.21,238.9,43.79,80.25,90.65,160.5,112.44,238.9,22.91,78.4,20.76,154.95-7.6,227.8-12.41,34.61-30.73,68.39-49.32,101.13,32.87-32.74,64.09-66.52,88.03-101.13,52.61-72.85,72.91-149.4,62.13-227.8Z"/>
  <path class="cls-1" d="M1189.8,668.96c-24.56,37.74-56.92,88.62-63.67,160.46-2.09,22.26-1.57,44.72,1.54,67.34,9.66,78.4,50.42,158.65,94.21,238.9,43.79,80.25,90.65,160.5,112.44,238.9,22.91,78.4,20.76,154.95-7.6,227.8-12.41,34.61-30.73,68.39-49.32,101.13,32.87-32.74,64.09-66.52,88.03-101.13,52.61-72.85,72.91-149.4,62.13-227.8-9.66-78.4-50.42-158.65-94.21-238.9-43.79-80.25-90.65-160.5-112.44-238.9-15.26-52.21-19.4-103.61-12.09-153.63,4.72-32.26,14.6-59.71,19.69-74.16,15.42-43.84,34.26-77.91,48.89-101.13-42.32,37.34-70.18,74.37-87.59,101.13Z"/>
  <path class="cls-1" d="M1326.72,466.69c-12.41,34.61-30.73,68.39-49.32,101.13,32.87-32.74,64.09-66.52,88.03-101.13,52.61-72.85,72.91-149.4,62.13-227.8-9.66-78.4-50.42-158.65-94.21-238.9h-111.46c43.79,80.25,90.65,160.5,112.44,238.9,22.91,78.4,20.76,154.95-7.6,227.8Z"/>
  <path class="cls-1" d="M1078.94,4303.71c-15.26-52.21-19.4-103.61-12.09-153.63,4.72-32.26,14.6-59.71,19.69-74.16,15.42-43.84,34.26-77.91,48.89-101.13-42.32,37.34-70.18,74.37-87.59,101.13-24.56,37.74-56.92,88.62-63.67,160.46-2.09,22.26-1.57,44.72,1.54,67.34,9.66,78.4,50.42,158.65,94.21,238.9h111.46s0,0,0,0c-43.79-80.25-90.65-160.5-112.44-238.9Z"/>
  <path class="cls-1" d="M1285.59,3645.85c-9.66-78.4-50.42-158.65-94.21-238.9-43.79-80.25-90.65-160.5-112.44-238.9-15.26-52.21-19.4-103.61-12.09-153.63,4.72-32.26,14.6-59.71,19.69-74.16,15.42-43.84,34.26-77.91,48.89-101.13-42.32,37.34-70.18,74.37-87.59,101.13-24.56,37.74-56.92,88.62-63.67,160.46-2.09,22.26-1.57,44.72,1.54,67.34,9.66,78.4,50.42,158.65,94.21,238.9,43.79,80.25,90.65,160.5,112.44,238.9,22.91,78.4,20.76,154.95-7.6,227.8-12.41,34.61-30.73,68.39-49.32,101.13,32.87-32.74,64.09-66.52,88.03-101.13,52.61-72.85,72.91-149.4,62.13-227.8Z"/>
  <path class="cls-1" d="M1285.59,2510.2c-9.66-78.4-50.42-158.65-94.21-238.9-43.79-80.25-90.65-160.5-112.44-238.9-15.26-52.21-19.4-103.61-12.09-153.63,4.72-32.26,14.6-59.71,19.69-74.16,15.42-43.84,34.26-77.91,48.89-101.13-42.32,37.34-70.18,74.37-87.59,101.13-24.56,37.74-56.92,88.62-63.67,160.46-2.09,22.26-1.57,44.72,1.54,67.34,9.66,78.4,50.42,158.65,94.21,238.9,43.79,80.25,90.65,160.5,112.44,238.9,22.91,78.4,20.76,154.95-7.6,227.8-12.41,34.61-30.73,68.39-49.32,101.13,32.87-32.74,64.09-66.52,88.03-101.13,52.61-72.85,72.91-149.4,62.13-227.8Z"/>
  <path class="cls-1" d="M1047.84,668.96c-24.56,37.74-56.92,88.62-63.67,160.46-2.09,22.26-1.57,44.72,1.54,67.34,9.66,78.4,50.42,158.65,94.21,238.9,43.79,80.25,90.65,160.5,112.44,238.9,22.91,78.4,20.76,154.95-7.6,227.8-12.41,34.61-30.73,68.39-49.32,101.13,32.87-32.74,64.09-66.52,88.03-101.13,52.61-72.85,72.91-149.4,62.13-227.8-9.66-78.4-50.42-158.65-94.21-238.9-43.79-80.25-90.65-160.5-112.44-238.9-15.26-52.21-19.4-103.61-12.09-153.63,4.72-32.26,14.6-59.71,19.69-74.16,15.42-43.84,34.26-77.91,48.89-101.13-42.32,37.34-70.18,74.37-87.59,101.13Z"/>
  <path class="cls-1" d="M1184.76,466.69c-12.41,34.61-30.73,68.39-49.32,101.13,32.87-32.74,64.09-66.52,88.03-101.13,52.61-72.85,72.91-149.4,62.13-227.8-9.66-78.4-50.42-158.65-94.21-238.9h-111.46c43.79,80.25,90.65,160.5,112.44,238.9,22.91,78.4,20.76,154.95-7.6,227.8Z"/>
  <path class="cls-1" d="M936.99,4303.71c-15.26-52.21-19.4-103.61-12.09-153.63,4.72-32.26,14.6-59.71,19.69-74.16,15.42-43.84,34.25-77.91,48.89-101.13-42.32,37.34-70.18,74.37-87.59,101.13-24.56,37.74-56.92,88.62-63.67,160.46-2.09,22.26-1.57,44.72,1.54,67.34,9.66,78.4,50.42,158.65,94.21,238.9h111.46s0,0,0,0c-43.79-80.25-90.65-160.5-112.44-238.9Z"/>
  <path class="cls-1" d="M1143.63,3645.85c-9.66-78.4-50.42-158.65-94.21-238.9-43.79-80.25-90.65-160.5-112.44-238.9-15.26-52.21-19.4-103.61-12.09-153.63,4.72-32.26,14.6-59.71,19.69-74.16,15.42-43.84,34.25-77.91,48.89-101.13-42.32,37.34-70.18,74.37-87.59,101.13-24.56,37.74-56.92,88.62-63.67,160.46-2.09,22.26-1.57,44.72,1.54,67.34,9.66,78.4,50.42,158.65,94.21,238.9,43.79,80.25,90.65,160.5,112.44,238.9,22.91,78.4,20.76,154.95-7.6,227.8-12.41,34.61-30.73,68.39-49.32,101.13,32.87-32.74,64.09-66.52,88.03-101.13,52.61-72.85,72.91-149.4,62.13-227.8Z"/>
  <path class="cls-1" d="M1143.63,2510.2c-9.66-78.4-50.42-158.65-94.21-238.9-43.79-80.25-90.65-160.5-112.44-238.9-15.26-52.21-19.4-103.61-12.09-153.63,4.72-32.26,14.6-59.71,19.69-74.16,15.42-43.84,34.25-77.91,48.89-101.13-42.32,37.34-70.18,74.37-87.59,101.13-24.56,37.74-56.92,88.62-63.67,160.46-2.09,22.26-1.57,44.72,1.54,67.34,9.66,78.4,50.42,158.65,94.21,238.9,43.79,80.25,90.65,160.5,112.44,238.9,22.91,78.4,20.76,154.95-7.6,227.8-12.41,34.61-30.73,68.39-49.32,101.13,32.87-32.74,64.09-66.52,88.03-101.13,52.61-72.85,72.91-149.4,62.13-227.8Z"/>
  <path class="cls-1" d="M905.88,668.96c-24.56,37.74-56.92,88.62-63.67,160.46-2.09,22.26-1.57,44.72,1.54,67.34,9.66,78.4,50.42,158.65,94.21,238.9,43.79,80.25,90.65,160.5,112.44,238.9,22.91,78.4,20.76,154.95-7.6,227.8-12.41,34.61-30.73,68.39-49.32,101.13,32.87-32.74,64.09-66.52,88.03-101.13,52.61-72.85,72.91-149.4,62.13-227.8-9.66-78.4-50.42-158.65-94.21-238.9-43.79-80.25-90.65-160.5-112.44-238.9-15.26-52.21-19.4-103.61-12.09-153.63,4.72-32.26,14.6-59.71,19.69-74.16,15.42-43.84,34.25-77.91,48.89-101.13-42.32,37.34-70.18,74.37-87.59,101.13Z"/>
  <path class="cls-1" d="M1042.8,466.69c-12.41,34.61-30.73,68.39-49.32,101.13,32.87-32.74,64.09-66.52,88.03-101.13,52.61-72.85,72.91-149.4,62.13-227.8-9.66-78.4-50.42-158.65-94.21-238.9h-111.46c43.79,80.25,90.65,160.5,112.44,238.9,22.91,78.4,20.76,154.95-7.6,227.8Z"/>
  <path class="cls-1" d="M795.03,4303.71c-15.26-52.21-19.4-103.61-12.09-153.63,4.72-32.26,14.6-59.71,19.69-74.16,15.42-43.84,34.25-77.91,48.89-101.13-42.32,37.34-70.18,74.37-87.59,101.13-24.56,37.74-56.92,88.62-63.67,160.46-2.09,22.26-1.57,44.72,1.54,67.34,9.66,78.4,50.42,158.65,94.21,238.9h111.46,0c-43.79-80.25-90.65-160.5-112.44-238.9Z"/>
  <path class="cls-1" d="M1001.68,3645.85c-9.66-78.4-50.42-158.65-94.21-238.9-43.79-80.25-90.65-160.5-112.44-238.9-15.26-52.21-19.4-103.61-12.09-153.63,4.72-32.26,14.6-59.71,19.69-74.16,15.42-43.84,34.25-77.91,48.89-101.13-42.32,37.34-70.18,74.37-87.59,101.13-24.56,37.74-56.92,88.62-63.67,160.46-2.09,22.26-1.57,44.72,1.54,67.34,9.66,78.4,50.42,158.65,94.21,238.9,43.79,80.25,90.65,160.5,112.44,238.9,22.91,78.4,20.76,154.95-7.6,227.8-12.41,34.61-30.73,68.39-49.32,101.13,32.87-32.74,64.09-66.52,88.03-101.13,52.61-72.85,72.91-149.4,62.13-227.8Z"/>
  <path class="cls-1" d="M1001.68,2510.2c-9.66-78.4-50.42-158.65-94.21-238.9-43.79-80.25-90.65-160.5-112.44-238.9-15.26-52.21-19.4-103.61-12.09-153.63,4.72-32.26,14.6-59.71,19.69-74.16,15.42-43.84,34.25-77.91,48.89-101.13-42.32,37.34-70.18,74.37-87.59,101.13-24.56,37.74-56.92,88.62-63.67,160.46-2.09,22.26-1.57,44.72,1.54,67.34,9.66,78.4,50.42,158.65,94.21,238.9,43.79,80.25,90.65,160.5,112.44,238.9,22.91,78.4,20.76,154.95-7.6,227.8-12.41,34.61-30.73,68.39-49.32,101.13,32.87-32.74,64.09-66.52,88.03-101.13,52.61-72.85,72.91-149.4,62.13-227.8Z"/>
  <path class="cls-1" d="M763.93,668.96c-24.56,37.74-56.92,88.62-63.67,160.46-2.09,22.26-1.57,44.72,1.54,67.34,9.66,78.4,50.42,158.65,94.21,238.9,43.79,80.25,90.65,160.5,112.44,238.9,22.91,78.4,20.76,154.95-7.6,227.8-12.41,34.61-30.73,68.39-49.32,101.13,32.87-32.74,64.09-66.52,88.03-101.13,52.61-72.85,72.91-149.4,62.13-227.8-9.66-78.4-50.42-158.65-94.21-238.9-43.79-80.25-90.65-160.5-112.44-238.9-15.26-52.21-19.4-103.61-12.09-153.63,4.72-32.26,14.6-59.71,19.69-74.16,15.42-43.84,34.25-77.91,48.89-101.13-42.32,37.34-70.18,74.37-87.59,101.13Z"/>
  <path class="cls-1" d="M900.85,466.69c-12.41,34.61-30.73,68.39-49.32,101.13,32.87-32.74,64.09-66.52,88.03-101.13,52.61-72.85,72.91-149.4,62.13-227.8-9.66-78.4-50.42-158.65-94.21-238.9h-111.46c43.79,80.25,90.65,160.5,112.44,238.9,22.91,78.4,20.76,154.95-7.6,227.8Z"/>
  <path class="cls-1" d="M653.07,4303.71c-15.26-52.21-19.4-103.61-12.09-153.63,4.72-32.26,14.6-59.71,19.69-74.16,15.42-43.84,34.25-77.91,48.89-101.13-42.32,37.34-70.18,74.37-87.59,101.13-24.56,37.74-56.92,88.62-63.67,160.46-2.09,22.26-1.57,44.72,1.54,67.34,9.66,78.4,50.42,158.65,94.21,238.9h111.46,0c-43.79-80.25-90.65-160.5-112.44-238.9Z"/>
  <path class="cls-1" d="M859.72,3645.85c-9.66-78.4-50.42-158.65-94.21-238.9-43.79-80.25-90.65-160.5-112.44-238.9-15.26-52.21-19.4-103.61-12.09-153.63,4.72-32.26,14.6-59.71,19.69-74.16,15.42-43.84,34.25-77.91,48.89-101.13-42.32,37.34-70.18,74.37-87.59,101.13-24.56,37.74-56.92,88.62-63.67,160.46-2.09,22.26-1.57,44.72,1.54,67.34,9.66,78.4,50.42,158.65,94.21,238.9,43.79,80.25,90.65,160.5,112.44,238.9,22.91,78.4,20.76,154.95-7.6,227.8-12.41,34.61-30.73,68.39-49.32,101.13,32.87-32.74,64.09-66.52,88.03-101.13,52.61-72.85,72.91-149.4,62.13-227.8Z"/>
  <path class="cls-1" d="M859.72,2510.2c-9.66-78.4-50.42-158.65-94.21-238.9-43.79-80.25-90.65-160.5-112.44-238.9-15.26-52.21-19.4-103.61-12.09-153.63,4.72-32.26,14.6-59.71,19.69-74.16,15.42-43.84,34.25-77.91,48.89-101.13-42.32,37.34-70.18,74.37-87.59,101.13-24.56,37.74-56.92,88.62-63.67,160.46-2.09,22.26-1.57,44.72,1.54,67.34,9.66,78.4,50.42,158.65,94.21,238.9,43.79,80.25,90.65,160.5,112.44,238.9,22.91,78.4,20.76,154.95-7.6,227.8-12.41,34.61-30.73,68.39-49.32,101.13,32.87-32.74,64.09-66.52,88.03-101.13,52.61-72.85,72.91-149.4,62.13-227.8Z"/>
  <path class="cls-1" d="M621.97,668.96c-24.56,37.74-56.92,88.62-63.67,160.46-2.09,22.26-1.57,44.72,1.54,67.34,9.66,78.4,50.42,158.65,94.21,238.9,43.79,80.25,90.65,160.5,112.44,238.9,22.91,78.4,20.76,154.95-7.6,227.8-12.41,34.61-30.73,68.39-49.32,101.13,32.87-32.74,64.09-66.52,88.03-101.13,52.61-72.85,72.91-149.4,62.13-227.8-9.66-78.4-50.42-158.65-94.21-238.9-43.79-80.25-90.65-160.5-112.44-238.9-15.26-52.21-19.4-103.61-12.09-153.63,4.72-32.26,14.6-59.71,19.69-74.16,15.42-43.84,34.25-77.91,48.89-101.13-42.32,37.34-70.18,74.37-87.59,101.13Z"/>
  <path class="cls-1" d="M758.89,466.69c-12.41,34.61-30.73,68.39-49.32,101.13,32.87-32.74,64.09-66.52,88.03-101.13,52.61-72.85,72.91-149.4,62.13-227.8-9.66-78.4-50.42-158.65-94.21-238.9h-111.46c43.79,80.25,90.65,160.5,112.44,238.9,22.91,78.4,20.76,154.95-7.6,227.8Z"/>
  <path class="cls-1" d="M511.12,4303.71c-15.26-52.21-19.4-103.61-12.09-153.63,4.72-32.26,14.6-59.71,19.69-74.16,15.42-43.84,34.25-77.91,48.89-101.13-42.32,37.34-70.18,74.37-87.59,101.13-24.56,37.74-56.92,88.62-63.67,160.46-2.09,22.26-1.57,44.72,1.54,67.34,9.66,78.4,50.42,158.65,94.21,238.9h111.46,0c-43.79-80.25-90.65-160.5-112.44-238.9Z"/>
  <path class="cls-1" d="M717.76,3645.85c-9.66-78.4-50.42-158.65-94.21-238.9-43.79-80.25-90.65-160.5-112.44-238.9-15.26-52.21-19.4-103.61-12.09-153.63,4.72-32.26,14.6-59.71,19.69-74.16,15.42-43.84,34.25-77.91,48.89-101.13-42.32,37.34-70.18,74.37-87.59,101.13-24.56,37.74-56.92,88.62-63.67,160.46-2.09,22.26-1.57,44.72,1.54,67.34,9.66,78.4,50.42,158.65,94.21,238.9,43.79,80.25,90.65,160.5,112.44,238.9,22.91,78.4,20.76,154.95-7.6,227.8-12.41,34.61-30.73,68.39-49.32,101.13,32.87-32.74,64.09-66.52,88.03-101.13,52.61-72.85,72.91-149.4,62.13-227.8Z"/>
  <path class="cls-1" d="M717.76,2510.2c-9.66-78.4-50.42-158.65-94.21-238.9-43.79-80.25-90.65-160.5-112.44-238.9-15.26-52.21-19.4-103.61-12.09-153.63,4.72-32.26,14.6-59.71,19.69-74.16,15.42-43.84,34.25-77.91,48.89-101.13-42.32,37.34-70.18,74.37-87.59,101.13-24.56,37.74-56.92,88.62-63.67,160.46-2.09,22.26-1.57,44.72,1.54,67.34,9.66,78.4,50.42,158.65,94.21,238.9,43.79,80.25,90.65,160.5,112.44,238.9,22.91,78.4,20.76,154.95-7.6,227.8-12.41,34.61-30.73,68.39-49.32,101.13,32.87-32.74,64.09-66.52,88.03-101.13,52.61-72.85,72.91-149.4,62.13-227.8Z"/>
  <path class="cls-1" d="M480.02,668.96c-24.56,37.74-56.92,88.62-63.67,160.46-2.09,22.26-1.57,44.72,1.54,67.34,9.66,78.4,50.42,158.65,94.21,238.9,43.79,80.25,90.65,160.5,112.44,238.9,22.91,78.4,20.76,154.95-7.6,227.8-12.41,34.61-30.73,68.39-49.32,101.13,32.87-32.74,64.09-66.52,88.03-101.13,52.61-72.85,72.91-149.4,62.13-227.8-9.66-78.4-50.42-158.65-94.21-238.9-43.79-80.25-90.65-160.5-112.44-238.9-15.26-52.21-19.4-103.61-12.09-153.63,4.72-32.26,14.6-59.71,19.69-74.16,15.42-43.84,34.25-77.91,48.89-101.13-42.32,37.34-70.18,74.37-87.59,101.13Z"/>
  <path class="cls-1" d="M616.93,466.69c-12.41,34.61-30.73,68.39-49.32,101.13,32.87-32.74,64.09-66.52,88.03-101.13,52.61-72.85,72.91-149.4,62.13-227.8-9.66-78.4-50.42-158.65-94.21-238.9h-111.46c43.79,80.25,90.65,160.5,112.44,238.9,22.91,78.4,20.76,154.95-7.6,227.8Z"/>
  <path class="cls-1" d="M369.16,4303.71c-15.26-52.21-19.4-103.61-12.09-153.63,4.72-32.26,14.6-59.71,19.69-74.16,15.42-43.84,34.25-77.91,48.89-101.13-42.32,37.34-70.18,74.37-87.59,101.13-24.56,37.74-56.92,88.62-63.67,160.46-2.09,22.26-1.57,44.72,1.54,67.34,9.66,78.4,50.42,158.65,94.21,238.9h111.46s0,0,0,0c-43.79-80.25-90.65-160.5-112.44-238.9Z"/>
  <path class="cls-1" d="M575.81,3645.85c-9.66-78.4-50.42-158.65-94.21-238.9-43.79-80.25-90.65-160.5-112.44-238.9-15.26-52.21-19.4-103.61-12.09-153.63,4.72-32.26,14.6-59.71,19.69-74.16,15.42-43.84,34.25-77.91,48.89-101.13-42.32,37.34-70.18,74.37-87.59,101.13-24.56,37.74-56.92,88.62-63.67,160.46-2.09,22.26-1.57,44.72,1.54,67.34,9.66,78.4,50.42,158.65,94.21,238.9,43.79,80.25,90.65,160.5,112.44,238.9,22.91,78.4,20.76,154.95-7.6,227.8-12.41,34.61-30.73,68.39-49.32,101.13,32.87-32.74,64.09-66.52,88.03-101.13,52.61-72.85,72.91-149.4,62.13-227.8Z"/>
  <path class="cls-1" d="M575.81,2510.2c-9.66-78.4-50.42-158.65-94.21-238.9-43.79-80.25-90.65-160.5-112.44-238.9-15.26-52.21-19.4-103.61-12.09-153.63,4.72-32.26,14.6-59.71,19.69-74.16,15.42-43.84,34.25-77.91,48.89-101.13-42.32,37.34-70.18,74.37-87.59,101.13-24.56,37.74-56.92,88.62-63.67,160.46-2.09,22.26-1.57,44.72,1.54,67.34,9.66,78.4,50.42,158.65,94.21,238.9,43.79,80.25,90.65,160.5,112.44,238.9,22.91,78.4,20.76,154.95-7.6,227.8-12.41,34.61-30.73,68.39-49.32,101.13,32.87-32.74,64.09-66.52,88.03-101.13,52.61-72.85,72.91-149.4,62.13-227.8Z"/>
  <path class="cls-1" d="M338.06,668.96c-24.56,37.74-56.92,88.62-63.67,160.46-2.09,22.26-1.57,44.72,1.54,67.34,9.66,78.4,50.42,158.65,94.21,238.9,43.79,80.25,90.65,160.5,112.44,238.9,22.91,78.4,20.76,154.95-7.6,227.8-12.41,34.61-30.73,68.39-49.32,101.13,32.87-32.74,64.09-66.52,88.03-101.13,52.61-72.85,72.91-149.4,62.13-227.8-9.66-78.4-50.42-158.65-94.21-238.9-43.79-80.25-90.65-160.5-112.44-238.9-15.26-52.21-19.4-103.61-12.09-153.63,4.72-32.26,14.6-59.71,19.69-74.16,15.42-43.84,34.25-77.91,48.89-101.13-42.32,37.34-70.18,74.37-87.59,101.13Z"/>
  <path class="cls-1" d="M474.98,466.69c-12.41,34.61-30.73,68.39-49.32,101.13,32.87-32.74,64.09-66.52,88.03-101.13,52.61-72.85,72.91-149.4,62.13-227.8-9.66-78.4-50.42-158.65-94.21-238.9h-111.46c43.79,80.25,90.65,160.5,112.44,238.9,22.91,78.4,20.76,154.95-7.6,227.8Z"/>
  <path class="cls-1" d="M227.2,4303.71c-15.26-52.21-19.4-103.61-12.09-153.63,4.72-32.26,14.6-59.71,19.69-74.16,15.42-43.84,34.25-77.91,48.89-101.13-42.32,37.34-70.18,74.37-87.59,101.13-24.56,37.74-56.92,88.62-63.67,160.46-2.09,22.26-1.57,44.72,1.54,67.34,9.66,78.4,50.42,158.65,94.21,238.9h111.46,0c-43.79-80.25-90.65-160.5-112.44-238.9Z"/>
  <path class="cls-1" d="M433.85,3645.85c-9.66-78.4-50.42-158.65-94.21-238.9-43.79-80.25-90.65-160.5-112.44-238.9-15.26-52.21-19.4-103.61-12.09-153.63,4.72-32.26,14.6-59.71,19.69-74.16,15.42-43.84,34.25-77.91,48.89-101.13-42.32,37.34-70.18,74.37-87.59,101.13-24.56,37.74-56.92,88.62-63.67,160.46-2.09,22.26-1.57,44.72,1.54,67.34,9.66,78.4,50.42,158.65,94.21,238.9,43.79,80.25,90.65,160.5,112.44,238.9,22.91,78.4,20.76,154.95-7.6,227.8-12.41,34.61-30.73,68.39-49.32,101.13,32.87-32.74,64.09-66.52,88.03-101.13,52.61-72.85,72.91-149.4,62.13-227.8Z"/>
  <path class="cls-1" d="M283.7,2839.13c32.87-32.74,64.09-66.52,88.03-101.13,52.61-72.85,72.91-149.4,62.13-227.8-9.66-78.4-50.42-158.65-94.21-238.9-43.79-80.25-90.65-160.5-112.44-238.9-15.26-52.21-19.4-103.61-12.09-153.63,4.72-32.26,14.6-59.71,19.69-74.16,15.42-43.84,34.25-77.91,48.89-101.13-42.32,37.34-70.18,74.37-87.59,101.13-24.56,37.74-56.92,88.62-63.67,160.46-2.09,22.26-1.57,44.72,1.54,67.34,9.66,78.4,50.42,158.65,94.21,238.9,43.79,80.25,90.65,160.5,112.44,238.9,22.91,78.4,20.76,154.95-7.6,227.8-12.41,34.61-30.73,68.39-49.32,101.13Z"/>
  <path class="cls-1" d="M283.7,1703.48c32.87-32.74,64.09-66.52,88.03-101.13,52.61-72.85,72.91-149.4,62.13-227.8-9.66-78.4-50.42-158.65-94.21-238.9-43.79-80.25-90.65-160.5-112.44-238.9-15.26-52.21-19.4-103.61-12.09-153.63,4.72-32.26,14.6-59.71,19.69-74.16,15.42-43.84,34.25-77.91,48.89-101.13-42.32,37.34-70.18,74.37-87.59,101.13-24.56,37.74-56.92,88.62-63.67,160.46-2.09,22.26-1.57,44.72,1.54,67.34,9.66,78.4,50.42,158.65,94.21,238.9,43.79,80.25,90.65,160.5,112.44,238.9,22.91,78.4,20.76,154.95-7.6,227.8-12.41,34.61-30.73,68.39-49.32,101.13Z"/>
  <path class="cls-1" d="M333.02,466.69c-12.41,34.61-30.73,68.39-49.32,101.13,32.87-32.74,64.09-66.52,88.03-101.13,52.61-72.85,72.91-149.4,62.13-227.8-9.66-78.4-50.42-158.65-94.21-238.9h-111.46c43.79,80.25,90.65,160.5,112.44,238.9,22.91,78.4,20.76,154.95-7.6,227.8Z"/>
  <path class="cls-1" d="M85.25,4303.71c-15.26-52.21-19.4-103.61-12.09-153.63,4.72-32.26,14.6-59.71,19.69-74.16,15.42-43.84,34.25-77.91,48.89-101.13-42.32,37.34-70.18,74.37-87.59,101.13-18.34,28.18-41.02,63.69-54.15,109.77v160.09c16.31,64.93,50.24,130.88,86.23,196.84h111.46,0c-43.79-80.25-90.65-160.5-112.44-238.9Z"/>
  <path class="cls-1" d="M291.89,3645.85c-9.66-78.4-50.42-158.65-94.21-238.9-43.79-80.25-90.65-160.5-112.44-238.9-15.26-52.21-19.4-103.61-12.09-153.63,4.72-32.26,14.6-59.71,19.69-74.16,15.42-43.84,34.25-77.91,48.89-101.13-42.32,37.34-70.18,74.37-87.59,101.13-18.34,28.18-41.02,63.69-54.15,109.77v160.09c16.31,64.93,50.24,130.88,86.23,196.84,43.79,80.25,90.65,160.5,112.44,238.9,22.91,78.4,20.76,154.95-7.6,227.8-12.41,34.61-30.73,68.39-49.32,101.13,32.87-32.74,64.09-66.52,88.03-101.13,52.61-72.85,72.91-149.4,62.13-227.8Z"/>
  <path class="cls-1" d="M198.66,2510.2c22.91,78.4,20.76,154.95-7.6,227.8-12.41,34.61-30.73,68.39-49.32,101.13,32.87-32.74,64.09-66.52,88.03-101.13,52.61-72.85,72.91-149.4,62.13-227.8-9.66-78.4-50.42-158.65-94.21-238.9-43.79-80.25-90.65-160.5-112.44-238.9-15.26-52.21-19.4-103.61-12.09-153.63,4.72-32.26,14.6-59.71,19.69-74.16,15.42-43.84,34.25-77.91,48.89-101.13-42.32,37.34-70.18,74.37-87.59,101.13-18.34,28.18-41.02,63.69-54.15,109.77v160.09c16.31,64.93,50.24,130.88,86.23,196.84,43.79,80.25,90.65,160.5,112.44,238.9Z"/>
  <path class="cls-1" d="M198.66,1374.55c22.91,78.4,20.76,154.95-7.6,227.8-12.41,34.61-30.73,68.39-49.32,101.13,32.87-32.74,64.09-66.52,88.03-101.13,52.61-72.85,72.91-149.4,62.13-227.8-9.66-78.4-50.42-158.65-94.21-238.9-43.79-80.25-90.65-160.5-112.44-238.9-15.26-52.21-19.4-103.61-12.09-153.63,4.72-32.26,14.6-59.71,19.69-74.16,15.42-43.84,34.25-77.91,48.89-101.13-42.32,37.34-70.18,74.37-87.59,101.13-18.34,28.18-41.02,63.69-54.15,109.77v160.09c16.31,64.93,50.24,130.88,86.23,196.84,43.79,80.25,90.65,160.5,112.44,238.9Z"/>
  <path class="cls-1" d="M191.06,466.69c-12.41,34.61-30.73,68.39-49.32,101.13,32.87-32.74,64.09-66.52,88.03-101.13,52.61-72.85,72.91-149.4,62.13-227.8-9.66-78.4-50.42-158.65-94.21-238.9h-111.46c43.79,80.25,90.65,160.5,112.44,238.9,22.91,78.4,20.76,154.95-7.6,227.8Z"/>
  <path class="cls-1" d="M0,4439.65v102.95h55.73,0c-18.75-34.37-38.06-68.73-55.73-102.95Z"/>
  <path class="cls-1" d="M149.94,3645.85c-9.66-78.4-50.42-158.65-94.21-238.9-18.75-34.36-38.06-68.73-55.73-102.95v205.9c23.59,45.69,44.25,91.12,56.71,135.95,22.91,78.4,20.76,154.95-7.6,227.8-12.36,34.48-30.59,68.13-49.11,100.75v.17c32.79-32.68,63.93-66.38,87.81-100.92,52.61-72.85,72.91-149.4,62.13-227.8Z"/>
  <path class="cls-1" d="M149.94,2510.2c-9.66-78.4-50.42-158.65-94.21-238.9-18.75-34.36-38.06-68.73-55.73-102.95v205.9c23.59,45.69,44.25,91.12,56.71,135.95,22.91,78.4,20.76,154.95-7.6,227.8-12.36,34.48-30.59,68.13-49.11,100.75v.17c32.79-32.68,63.93-66.38,87.81-100.92,52.61-72.85,72.91-149.4,62.13-227.8Z"/>
  <path class="cls-1" d="M149.94,1374.55c-9.66-78.4-50.42-158.65-94.21-238.9-18.75-34.36-38.06-68.73-55.73-102.95v205.9c23.59,45.69,44.25,91.12,56.71,135.95,22.91,78.4,20.76,154.95-7.6,227.8-12.36,34.48-30.59,68.13-49.11,100.75v.17c32.79-32.68,63.93-66.38,87.81-100.92,52.61-72.85,72.91-149.4,62.13-227.8Z"/>
  <path class="cls-1" d="M149.94,238.9C140.27,160.5,99.52,80.25,55.73,0H0v102.95c23.59,45.69,44.25,91.12,56.71,135.95,22.91,78.4,20.76,154.95-7.6,227.8-12.36,34.48-30.59,68.13-49.11,100.75v.17c32.79-32.68,63.93-66.38,87.81-100.92,52.61-72.85,72.91-149.4,62.13-227.8Z"/>
  <path class="cls-1" d="M7.98,3645.85c-1.72-13.96-4.45-27.99-7.98-42.06v160.47c10.87-38.82,13.49-78.37,7.98-118.41Z"/>
  <path class="cls-1" d="M7.98,2510.2c-1.72-13.96-4.45-27.99-7.98-42.06v160.47c10.87-38.82,13.49-78.38,7.98-118.41Z"/>
  <path class="cls-1" d="M7.98,1374.55c-1.72-13.96-4.45-27.99-7.98-42.06v160.47c10.87-38.82,13.49-78.38,7.98-118.41Z"/>
  <path class="cls-1" d="M7.98,238.9c-1.72-13.96-4.45-27.99-7.98-42.06v160.47c10.87-38.82,13.49-78.38,7.98-118.41Z"/>
  <path class="cls-1" d="M4534.62,4303.71c1.72,13.96,4.45,27.99,7.98,42.06v-160.09c-4.46,15.64-7.81,32.49-9.52,50.69-2.09,22.26-1.57,44.72,1.54,67.34Z"/>
  <path class="cls-1" d="M4534.62,3168.06c1.72,13.96,4.45,27.99,7.98,42.06v-160.09c-4.46,15.64-7.81,32.49-9.52,50.69-2.09,22.26-1.57,44.72,1.54,67.34Z"/>
  <path class="cls-1" d="M4534.62,2032.41c1.72,13.96,4.45,27.99,7.98,42.06v-160.09c-4.46,15.64-7.81,32.49-9.52,50.69-2.09,22.26-1.57,44.72,1.54,67.34Z"/>
  <path class="cls-1" d="M4534.62,896.75c1.72,13.96,4.45,27.99,7.98,42.06v-160.09c-4.46,15.64-7.81,32.49-9.52,50.69-2.09,22.26-1.57,44.72,1.54,67.34Z"/>
</svg>