<?xml version="1.0" encoding="UTF-8"?>
<svg id="Layer_1" data-name="Layer 1" xmlns="http://www.w3.org/2000/svg" viewBox="0 0 960 467.45">
  <defs>
    <style>
      .cls-1 {
        fill: #3b3839;
      }
    </style>
  </defs>
  <path class="cls-1" d="M353.14,2.04l2.72-2.04c26.77,14.97,49.45,32.1,68.04,51.37,18.61,19.28,32.55,39.36,41.85,60.21,9.3,20.87,15.87,40.38,19.73,58.52,3.85,18.15,5.78,36.74,5.78,55.8,0,44-10.55,84.49-31.64,121.46-21.09,36.97-50.23,66.23-87.43,87.77-37.19,21.55-78.47,32.32-123.84,32.32s-86.52-10.77-124.86-32.32c-38.33-21.54-68.49-50.92-90.5-88.11C11,309.83,0,269.45,0,225.9c0-24.04,4.2-51.94,12.59-83.69,8.4-31.75,18.27-56.92,29.6-75.53,7.26,2.27,16.79,5.44,28.58,9.53,11.8,4.08,30.17,10.32,55.11,18.71,24.95,8.4,53.99,18.27,87.09,29.6-16.78,11.8-33.11,25.29-48.99,40.48-15.87,15.2-29.82,30.28-41.85,45.25-12.01,14.97-22.22,29.6-30.62,43.89-8.39,14.29-14.63,27.11-18.71,38.44-6.8,19.97-9.07,38.78-6.8,56.47,2.28,17.69,7.94,31.08,17.01,40.15,9.53,9.08,23.03,14.63,40.48,16.67,17.47,2.04,36.4-.11,56.82-6.47,37.66-13.15,84.83-47.63,141.53-103.42,19.97-19.96,35.84-40.71,47.63-62.26,11.8-21.54,19.39-41.61,22.79-60.21,3.4-18.6,4.54-36.85,3.4-54.78-1.13-17.91-3.85-33.68-8.16-47.29-4.31-13.61-9.19-25.86-14.63-36.74-5.44-10.89-9.87-18.94-13.27-24.16-3.4-5.21-5.55-8.05-6.46-8.51Z"/>
  <path class="cls-1" d="M821.88,2.04l2.72-2.04c26.77,14.97,49.45,32.1,68.04,51.37,18.61,19.28,32.55,39.36,41.85,60.21,9.3,20.87,15.87,40.38,19.73,58.52,3.85,18.15,5.78,36.74,5.78,55.8,0,44-10.55,84.49-31.64,121.46-21.09,36.97-50.23,66.23-87.43,87.77-37.19,21.55-78.47,32.32-123.84,32.32s-86.52-10.77-124.86-32.32c-38.33-21.54-68.49-50.92-90.5-88.11-22-37.19-33-77.57-33-121.12,0-24.04,4.2-51.94,12.59-83.69,8.4-31.75,18.27-56.92,29.6-75.53,7.26,2.27,16.79,5.44,28.58,9.53,11.8,4.08,30.17,10.32,55.11,18.71,24.95,8.4,53.99,18.27,87.09,29.6-16.78,11.8-33.11,25.29-48.99,40.48-15.87,15.2-29.82,30.28-41.85,45.25-12.01,14.97-22.22,29.6-30.62,43.89-8.39,14.29-14.63,27.11-18.71,38.44-6.8,19.97-9.07,38.78-6.8,56.47,2.28,17.69,7.94,31.08,17.01,40.15,9.53,9.08,23.03,14.63,40.48,16.67,17.47,2.04,36.4-.11,56.82-6.47,37.66-13.15,84.83-47.63,141.53-103.42,19.97-19.96,35.84-40.71,47.63-62.26,11.8-21.54,19.39-41.61,22.79-60.21,3.4-18.6,4.54-36.85,3.4-54.78-1.13-17.91-3.85-33.68-8.16-47.29-4.31-13.61-9.19-25.86-14.63-36.74-5.44-10.89-9.87-18.94-13.27-24.16-3.4-5.21-5.55-8.05-6.46-8.51Z"/>
</svg>