<?xml version="1.0" encoding="UTF-8"?>
<svg id="Layer_1" data-name="Layer 1" xmlns="http://www.w3.org/2000/svg" viewBox="0 0 1920 1976.51">
  <defs>
    <style>
      .cls-1 {
        fill: #3b3839;
      }
    </style>
  </defs>
  <path class="cls-1" d="M1865.82,1220.89c-19.73-44.3-49.34-86.91-88.86-127.87-37.73-39.1-83.46-74-137.04-104.78,53.58-30.76,99.31-65.66,137.04-104.76,39.52-40.96,69.14-83.57,88.86-127.87,19.75-44.32,33.69-85.75,41.9-124.26,8.16-38.54,12.28-78.01,12.28-118.48,0-93.44-22.39-179.38-67.18-257.89-44.79-78.51-106.66-140.62-185.66-186.38C1588.2,22.87,1500.55,0,1404.22,0s-183.73,22.87-265.11,68.62c-74.16,41.67-133.74,97.31-179.11,166.56-45.39-69.25-104.96-124.89-179.09-166.56C699.51,22.87,611.14,0,515.78,0s-183.98,22.87-262.96,68.62c-79,45.75-140.85,107.87-185.64,186.38C22.39,333.5,0,419.45,0,512.89c0,40.46,4.1,79.94,12.28,118.48,8.18,38.51,22.13,79.94,41.9,124.26,19.73,44.3,49.34,86.91,88.84,127.87,37.75,39.1,83.48,74,137.06,104.76-53.58,30.78-99.31,65.68-137.06,104.78-39.5,40.96-69.11,83.57-88.84,127.87-19.77,44.32-33.72,85.75-41.9,124.26-8.18,38.51-12.28,78.01-12.28,118.48,0,93.44,22.39,179.38,67.18,257.89,44.79,78.51,106.64,140.62,185.64,186.38,78.98,45.75,166.63,68.62,262.96,68.62s183.73-22.87,265.13-68.62c74.13-41.67,133.7-97.31,179.09-166.56,45.37,69.25,104.96,124.89,179.11,166.56,81.38,45.75,169.74,68.62,265.11,68.62s183.98-22.87,262.93-68.62c79-45.75,140.87-107.87,185.66-186.38,44.79-78.51,67.18-164.45,67.18-257.89,0-40.46-4.12-79.96-12.28-118.48-8.2-38.51-22.15-79.94-41.9-124.26"/>
</svg>